<?xml version="1.0" encoding="UTF-8"?>
<svg version="1.1" xmlns="http://www.w3.org/2000/svg" width="135" height="84">
<path d="M0 0 C1.65 0 3.3 0 5 0 C5.66 1.65 6.32 3.3 7 5 C7.55075195 4.92056152 8.10150391 4.84112305 8.66894531 4.75927734 C16.42465775 3.79885166 23.9669041 4.12820664 31.75 4.625 C33.03777344 4.68300781 34.32554688 4.74101563 35.65234375 4.80078125 C42.86880129 5.25695111 47.01792342 5.64364388 52 11 C53.91837968 12.0502896 53.91837968 12.0502896 55.6875 12.625 C59.93253189 14.38708871 61.34861613 15.52581544 63.1875 19.6875 C63.5896875 20.8321875 63.5896875 20.8321875 64 22 C65.27875 22.0825 66.5575 22.165 67.875 22.25 C70.0546875 22.390625 70.0546875 22.390625 72 23 C73.2578125 25.046875 73.2578125 25.046875 74 27 C75.20398438 27.04898437 76.40796875 27.09796875 77.6484375 27.1484375 C79.22398198 27.22346343 80.79950166 27.29901133 82.375 27.375 C83.1690625 27.4059375 83.963125 27.436875 84.78125 27.46875 C90.7734375 27.7734375 90.7734375 27.7734375 93 30 C93.6328125 32.8203125 93.6328125 32.8203125 94.125 36.125 C94.29257813 37.22070312 94.46015625 38.31640625 94.6328125 39.4453125 C94.75398438 40.28835937 94.87515625 41.13140625 95 42 C95.83249268 42.01981934 96.66498535 42.03963867 97.52270508 42.06005859 C100.614765 42.13820742 103.70643383 42.22490206 106.7980957 42.31738281 C108.7929536 42.37444092 110.7880854 42.42164442 112.78320312 42.46875 C114.03681641 42.50742187 115.29042969 42.54609375 116.58203125 42.5859375 C117.73936768 42.6173584 118.8967041 42.6487793 120.08911133 42.68115234 C123 43 123 43 126 45 C126.9702889 47.91086669 127.16467847 49.90223685 127.1875 52.9375 C127.20167969 53.79214844 127.21585938 54.64679687 127.23046875 55.52734375 C126.82379266 59.8904957 126.82379266 59.8904957 125 62 C122.17482275 62.46588547 119.70920439 62.69615501 116.875 62.75 C116.12089844 62.77964844 115.36679688 62.80929688 114.58984375 62.83984375 C112.72714047 62.91057932 110.86356245 62.95754983 109 63 C109.96099609 63.03867188 109.96099609 63.03867188 110.94140625 63.078125 C117.03036826 63.4774012 121.02585 64.40167872 126 68 C127.21468687 71.64406062 127.92134277 75.24587199 127 79 C124.47219451 82.0698962 122.9501905 83.79872207 119.00268555 84.63491821 C117.8919165 84.63889618 116.78114746 84.64287415 115.63671875 84.64697266 C114.37190674 84.66273346 113.10709473 84.67849426 111.80395508 84.69473267 C110.43179449 84.68578256 109.05964188 84.67552749 107.6875 84.6640625 C106.27172428 84.66743342 104.85595139 84.67228834 103.44018555 84.67855835 C100.47774615 84.68591695 97.51606226 84.67525858 94.55371094 84.65185547 C90.76362474 84.62336623 86.97530877 84.63977594 83.18528748 84.66971779 C80.26317092 84.68781941 77.34147143 84.68202008 74.41934204 84.66907883 C73.02234689 84.66575262 71.62531339 84.66980432 70.22836304 84.68147659 C68.27334353 84.69422848 66.31819057 84.67133275 64.36328125 84.64697266 C62.69712769 84.64100571 62.69712769 84.64100571 60.99731445 84.63491821 C57.02222261 83.79287836 55.52653229 82.11567963 53 79 C51.66150029 74.66955975 51.6199299 72.80574861 53.5625 68.6875 C58.67292217 63.05293196 65.82527464 63.48512378 73 63 C70.03 62.67 67.06 62.34 64 62 C64 60.68 64 59.36 64 58 C63.34 58 62.68 58 62 58 C61.77570313 57.17628906 61.55140625 56.35257813 61.3203125 55.50390625 C59.42183221 50.46563163 56.45480504 46.28109508 53.45703125 41.83398438 C53.01488281 41.15529297 52.57273438 40.47660156 52.1171875 39.77734375 C51.71097168 39.17140381 51.30475586 38.56546387 50.88623047 37.94116211 C49.7825013 35.52359996 49.8464458 33.62713669 50 31 C42.02226789 28.51545363 33.96747727 26.38778578 25.875 24.3125 C21.62625 23.219375 17.3775 22.12625 13 21 C13.99 30.57 14.98 40.14 16 50 C17.98 44.72 19.96 39.44 22 34 C26.38396651 35.46132217 29.26562391 36.583639 33 39 C31.23536928 45.10737442 29.30442525 51.07433507 27 57 C28.65 57.33 30.3 57.66 32 58 C32.18175781 56.7315625 32.18175781 56.7315625 32.3671875 55.4375 C33.29083695 49.18510375 34.32664417 43.09579623 36 37 C39.96 37.33 43.92 37.66 48 38 C48.17254962 43.45040546 47.54453151 48.3991349 46.50390625 53.7421875 C46.35090561 54.55116486 46.19790497 55.36014221 46.04026794 56.19363403 C45.71797549 57.89009032 45.39257475 59.58595879 45.06420898 61.28125 C44.5602616 63.88657215 44.06750757 66.49383563 43.57617188 69.1015625 C43.26107099 70.75272917 42.94533848 72.40377545 42.62890625 74.0546875 C42.48095108 74.83689667 42.33299591 75.61910583 42.18055725 76.42501831 C41.11568653 81.88431347 41.11568653 81.88431347 40 83 C32.63017424 84.07701003 25.31430096 84.21614653 17.875 84.25 C16.73417969 84.270625 15.59335937 84.29125 14.41796875 84.3125 C7.31543059 84.34549669 1.56346076 84.21860972 -3.9375 79.25 C-5.54407219 75.84784712 -5.568595 73.72745612 -5 70 C-3.546875 68.30859375 -3.546875 68.30859375 -1.8125 66.625 C-0.09317 64.97895735 -0.09317 64.97895735 1 63 C0.63270723 58.62849586 -0.90896754 55.09103246 -4 52 C-4.14180093 49.28805727 -3.99486881 46.63390679 -3.875 43.921875 C-4.01651957 40.61385509 -4.93274175 38.12776778 -6 35 C-6.43761774 32.34457879 -6.81696403 29.73130341 -7.125 27.0625 C-7.21136719 26.38509766 -7.29773438 25.70769531 -7.38671875 25.00976562 C-8.81731654 13.16759505 -8.81731654 13.16759505 -6.25 9.5 C-5.13625 8.2625 -5.13625 8.2625 -4 7 C-2.57818095 4.70875782 -1.29847467 2.36507887 0 0 Z M11 9 C15 10 15 10 15 10 Z M-1 28 C0 31 0 31 0 31 Z M0 34 C-0.83796731 38.65537393 -1.0161692 42.37078475 0 47 C1.98 47.495 1.98 47.495 4 48 C3.71715982 46.22773547 3.42339502 44.457212 3.125 42.6875 C2.96257813 41.70136719 2.80015625 40.71523438 2.6328125 39.69921875 C2.11914546 36.79940173 2.11914546 36.79940173 0 34 Z M3 51 C2.67 51.66 2.34 52.32 2 53 C2.33 53.66 2.66 54.32 3 55 C3.99 54.67 4.98 54.34 6 54 C6 53.01 6 52.02 6 51 C5.01 51 4.02 51 3 51 Z M21 67 C22.95216435 70.90432869 24.87386607 73.03839944 28 76 C28.66 73.69 29.32 71.38 30 69 C25.545 68.01 25.545 68.01 21 67 Z " fill="#E39D38" transform="translate(8,0)"/>
<path d="M0 0 C4.05281712 1.22527029 7.44360764 2.69880494 11 5 C9.23536928 11.10737442 7.30442525 17.07433507 5 23 C6.65 23.33 8.3 23.66 10 24 C10.18175781 22.7315625 10.18175781 22.7315625 10.3671875 21.4375 C11.29083695 15.18510375 12.32664417 9.09579623 14 3 C17.96 3.33 21.92 3.66 26 4 C26.17254962 9.45040546 25.54453151 14.3991349 24.50390625 19.7421875 C24.35090561 20.55116486 24.19790497 21.36014221 24.04026794 22.19363403 C23.71797549 23.89009032 23.39257475 25.58595879 23.06420898 27.28125 C22.5602616 29.88657215 22.06750757 32.49383563 21.57617188 35.1015625 C21.26107099 36.75272917 20.94533848 38.40377545 20.62890625 40.0546875 C20.48095108 40.83689667 20.33299591 41.61910583 20.18055725 42.42501831 C19.11568653 47.88431347 19.11568653 47.88431347 18 49 C10.63017424 50.07701003 3.31430096 50.21614653 -4.125 50.25 C-5.26582031 50.270625 -6.40664063 50.29125 -7.58203125 50.3125 C-14.68456941 50.34549669 -20.43653924 50.21860972 -25.9375 45.25 C-27.54407219 41.84784712 -27.568595 39.72745612 -27 36 C-25.546875 34.30859375 -25.546875 34.30859375 -23.8125 32.625 C-22.09317 30.97895735 -22.09317 30.97895735 -21 29 C-21.36729277 24.62849586 -22.90896754 21.09103246 -26 18 C-26.1953125 15.1796875 -26.1953125 15.1796875 -26.125 11.875 C-26.10695313 10.77929688 -26.08890625 9.68359375 -26.0703125 8.5546875 C-26.04710937 7.71164063 -26.02390625 6.86859375 -26 6 C-25.01 5.67 -24.02 5.34 -23 5 C-21.64560332 7.70879335 -21.93498549 10.00933268 -22 13 C-15.91591528 13.19814261 -15.91591528 13.19814261 -10 12 C-9.71125 12.804375 -9.4225 13.60875 -9.125 14.4375 C-8.26737432 17.1326468 -8.26737432 17.1326468 -6 18 C-5.81824219 17.3709375 -5.63648437 16.741875 -5.44921875 16.09375 C-3.84447416 10.62938892 -2.06414546 5.30780262 0 0 Z M-19 17 C-19.33 17.66 -19.66 18.32 -20 19 C-19.67 19.66 -19.34 20.32 -19 21 C-18.01 20.67 -17.02 20.34 -16 20 C-16 19.01 -16 18.02 -16 17 C-16.99 17 -17.98 17 -19 17 Z M-1 33 C0.95216435 36.90432869 2.87386607 39.03839944 6 42 C6.66 39.69 7.32 37.38 8 35 C3.545 34.01 3.545 34.01 -1 33 Z " fill="#4F5555" transform="translate(30,34)"/>
<path d="M0 0 C11.22 0 22.44 0 34 0 C34.495 0.99 34.495 0.99 35 2 C37.12393608 2.31730801 37.12393608 2.31730801 39.625 2.375 C44.78906469 2.78990333 47.80688861 3.96668538 52 7 C53.21468687 10.64406062 53.92134277 14.24587199 53 18 C50.47219451 21.0698962 48.9501905 22.79872207 45.00268555 23.63491821 C43.8919165 23.63889618 42.78114746 23.64287415 41.63671875 23.64697266 C39.73950073 23.67061386 39.73950073 23.67061386 37.80395508 23.69473267 C36.43179449 23.68578256 35.05964188 23.67552749 33.6875 23.6640625 C32.27172428 23.66743342 30.85595139 23.67228834 29.44018555 23.67855835 C26.47774615 23.68591695 23.51606226 23.67525858 20.55371094 23.65185547 C16.76362474 23.62336623 12.97530877 23.63977594 9.18528748 23.66971779 C6.26317092 23.68781941 3.34147143 23.68202008 0.41934204 23.66907883 C-0.97765311 23.66575262 -2.37468661 23.66980432 -3.77163696 23.68147659 C-5.72665647 23.69422848 -7.68180943 23.67133275 -9.63671875 23.64697266 C-11.30287231 23.64100571 -11.30287231 23.64100571 -13.00268555 23.63491821 C-16.97777739 22.79287836 -18.47346771 21.11567963 -21 18 C-22.33849971 13.66955975 -22.3800701 11.80574861 -20.4375 7.6875 C-15.70892486 2.4739428 -9.95597289 2.70342634 -3.29296875 2.34375 C-2.53628906 2.2303125 -1.77960938 2.116875 -1 2 C-0.67 1.34 -0.34 0.68 0 0 Z " fill="#4E5454" transform="translate(82,61)"/>
<path d="M0 0 C3.93265896 -0.04947698 7.86519714 -0.08575578 11.7980957 -0.10986328 C13.79319618 -0.12485495 15.78820946 -0.15026731 17.78320312 -0.17578125 C19.66362305 -0.18544922 19.66362305 -0.18544922 21.58203125 -0.1953125 C22.73936768 -0.20578613 23.8967041 -0.21625977 25.08911133 -0.22705078 C28 0 28 0 31 2 C31.9702889 4.91086669 32.16467847 6.90223685 32.1875 9.9375 C32.20167969 10.79214844 32.21585937 11.64679687 32.23046875 12.52734375 C32 15 32 15 30 19 C9.87 19 -10.26 19 -31 19 C-31 17.68 -31 16.36 -31 15 C-31.66 15 -32.32 15 -33 15 C-33 14.01 -33 13.02 -33 12 C-31.90042969 11.96261719 -30.80085938 11.92523438 -29.66796875 11.88671875 C-15.16479688 11.46785699 -15.16479688 11.46785699 -2 6 C-0.78715124 2.94570927 -0.78715124 2.94570927 0 0 Z " fill="#E19B39" transform="translate(103,43)"/>
<path d="M0 0 C4 0 4 0 6 1 C6 1.66 6 2.32 6 3 C7.20398438 3.04898437 8.40796875 3.09796875 9.6484375 3.1484375 C11.22398198 3.22346343 12.79950166 3.29901133 14.375 3.375 C15.1690625 3.4059375 15.963125 3.436875 16.78125 3.46875 C22.7734375 3.7734375 22.7734375 3.7734375 25 6 C25.703125 9.046875 25.703125 9.046875 26.25 12.75 C26.44078125 13.96171875 26.6315625 15.1734375 26.828125 16.421875 C27.00981543 20.20433951 26.52435956 22.55626411 25 26 C16.8287179 32.93320905 3.99884955 31.20663524 -6 31 C-6.50630092 22.86168148 -5.61895549 14.74909053 -3 7 C-2.01 6.67 -1.02 6.34 0 6 C0 4.02 0 2.04 0 0 Z " fill="#5B6B6A" transform="translate(76,24)"/>
<path d="M0 0 C3.96 0.33 7.92 0.66 12 1 C12.17736336 6.46975919 11.52984531 11.41907064 10.46875 16.77734375 C10.31337769 17.58869278 10.15800537 18.40004181 9.9979248 19.23597717 C9.50465467 21.80435969 9.00247932 24.37090502 8.5 26.9375 C8.16216856 28.68803692 7.824923 30.43868702 7.48828125 32.18945312 C6.66562443 36.4609742 5.83498147 40.73087174 5 45 C4.01 45 3.02 45 2 45 C2 44.34 2 43.68 2 43 C1.443125 43.20625 0.88625 43.4125 0.3125 43.625 C-2.78565071 44.12740282 -4.31509973 43.59642719 -7 42 C-8.21537818 38.70111637 -8.10272046 36.30816138 -7 33 C-9.31 32.34 -11.62 31.68 -14 31 C-13.67 29.02 -13.34 27.04 -13 25 C-14.32 24.34 -15.64 23.68 -17 23 C-16.67 22.34 -16.34 21.68 -16 21 C-16.99 20.67 -17.98 20.34 -19 20 C-19 21.65 -19 23.3 -19 25 C-20.32 24.34 -21.64 23.68 -23 23 C-22.34 21.35 -21.68 19.7 -21 18 C-19.10353002 18.11493757 -17.20781668 18.24239642 -15.3125 18.375 C-14.25675781 18.44460937 -13.20101563 18.51421875 -12.11328125 18.5859375 C-9.09322731 18.98760089 -6.75921946 19.74069019 -4 21 C-3.87882812 20.154375 -3.75765625 19.30875 -3.6328125 18.4375 C-2.70916305 12.18510375 -1.67335583 6.09579623 0 0 Z " fill="#404040" transform="translate(44,37)"/>
<path d="M0 0 C0.33 0.66 0.66 1.32 1 2 C1.7734375 1.98839844 2.546875 1.97679687 3.34375 1.96484375 C12.89539246 1.88209437 12.89539246 1.88209437 17.125 2.5 C26.37326644 3.7652269 26.37326644 3.7652269 35 1 C35.38542969 1.64066406 35.77085938 2.28132812 36.16796875 2.94140625 C38.51517856 5.57888934 39.85244264 5.58814428 43.3125 5.9375 C48.72045427 6.7336312 51.29677419 7.99651264 55 12 C55 12.66 55 13.32 55 14 C56.32 14.33 57.64 14.66 59 15 C59.495 16.98 59.495 16.98 60 19 C59.01 19.33 58.02 19.66 57 20 C56.34 20.99 55.68 21.98 55 23 C50.53900362 23.42084871 46.94811223 23.20629801 43 21 C41.90341064 17.71023192 42.20046862 16.28696233 43 13 C41.16299211 12.22757731 41.16299211 12.22757731 39 12 C38.54149658 12.50281494 38.08299316 13.00562988 37.6105957 13.52368164 C36 15 36 15 34.14916992 14.92358398 C33.45412354 14.72063721 32.75907715 14.51769043 32.04296875 14.30859375 C28.46955151 13.36479503 24.95261864 12.6144724 21.30078125 12.03515625 C20.31916016 11.87466797 19.33753906 11.71417969 18.32617188 11.54882812 C16.30624244 11.22286414 14.28538391 10.90260941 12.26367188 10.58789062 C7.08023974 9.73024958 2.4658783 8.9550339 -2 6 C-2.33 5.01 -2.66 4.02 -3 3 C-2.01 2.01 -1.02 1.02 0 0 Z " fill="#F6B051" transform="translate(14,8)"/>
<path d="M0 0 C1.48454806 0.59082014 2.96254351 1.19812655 4.4375 1.8125 C5.26121094 2.14894531 6.08492187 2.48539063 6.93359375 2.83203125 C9 4 9 4 10 7 C10.66 7.33 11.32 7.66 12 8 C12.48623615 10.99845629 12.8487441 13.91825559 13.125 16.9375 C13.20991699 17.79964111 13.29483398 18.66178223 13.38232422 19.55004883 C13.92944079 25.39054576 14.19238761 31.13217787 14 37 C13.01 36.34 12.02 35.68 11 35 C11 33.68 11 32.36 11 31 C10.4225 31.33 9.845 31.66 9.25 32 C7 33 7 33 3 33 C2.01 29.37 1.02 25.74 0 22 C-0.66 22.99 -1.32 23.98 -2 25 C-3.32 25 -4.64 25 -6 25 C-6.33808686 22.93827387 -6.67027361 20.8755797 -7 18.8125 C-7.185625 17.66394531 -7.37125 16.51539062 -7.5625 15.33203125 C-7.93489477 12.49584607 -8.08596021 9.85280436 -8 7 C-7.1028125 7.7734375 -7.1028125 7.7734375 -6.1875 8.5625 C-5.465625 9.036875 -4.74375 9.51125 -4 10 C-3.01 9.67 -2.02 9.34 -1 9 C-0.67 6.03 -0.34 3.06 0 0 Z M-2 13 C-1 16 -1 16 -1 16 Z " fill="#F9AE49" transform="translate(9,15)"/>
<path d="M0 0 C4.05281712 1.22527029 7.44360764 2.69880494 11 5 C9.33846988 10.85659906 7.52958084 16.4590134 5 22 C1.04 21.67 -2.92 21.34 -7 21 C-7.33 21.99 -7.66 22.98 -8 24 C-8.99 24 -9.98 24 -11 24 C-11 23.34 -11 22.68 -11 22 C-12.65 22 -14.3 22 -16 22 C-16.99 23.98 -17.98 25.96 -19 28 C-23.27545035 25.14969977 -24.31990147 21.41125842 -25.6875 16.5625 C-26.11955514 13.01964782 -26.06048625 9.56868896 -26 6 C-25.01 5.67 -24.02 5.34 -23 5 C-21.64560332 7.70879335 -21.93498549 10.00933268 -22 13 C-15.91591528 13.19814261 -15.91591528 13.19814261 -10 12 C-9.71125 12.804375 -9.4225 13.60875 -9.125 14.4375 C-8.26737432 17.1326468 -8.26737432 17.1326468 -6 18 C-5.81824219 17.3709375 -5.63648437 16.741875 -5.44921875 16.09375 C-3.84447416 10.62938892 -2.06414546 5.30780262 0 0 Z M-19 17 C-19.33 17.66 -19.66 18.32 -20 19 C-19.67 19.66 -19.34 20.32 -19 21 C-18.01 20.67 -17.02 20.34 -16 20 C-16 19.01 -16 18.02 -16 17 C-16.99 17 -17.98 17 -19 17 Z " fill="#524C41" transform="translate(30,34)"/>
<path d="M0 0 C1.65 0 3.3 0 5 0 C5.66 1.65 6.32 3.3 7 5 C7.55075195 4.92056152 8.10150391 4.84112305 8.66894531 4.75927734 C16.42465775 3.79885166 23.9669041 4.12820664 31.75 4.625 C33.03777344 4.68300781 34.32554688 4.74101563 35.65234375 4.80078125 C42.86880129 5.25695111 47.01792342 5.64364388 52 11 C53.91837968 12.0502896 53.91837968 12.0502896 55.6875 12.625 C60.29531568 14.53767821 60.29531568 14.53767821 62 17 C62.6875 19.6875 62.6875 19.6875 63 22 C62.34 22 61.68 22 61 22 C60.43410156 21.20851563 59.86820312 20.41703125 59.28515625 19.6015625 C56.43243014 16.35384355 54.64161349 16.09242551 50.4375 15.375 C43.22051409 14.11346103 43.22051409 14.11346103 41 11 C41 10.34 41 9.68 41 9 C40.28070313 9.75023437 40.28070313 9.75023437 39.546875 10.515625 C35.76543508 12.7195317 32.51195643 12.119091 28.25 11.75 C27.08984375 11.67072266 27.08984375 11.67072266 25.90625 11.58984375 C22.14478585 11.31846295 18.41117328 10.94176361 14.671875 10.453125 C10.95497364 9.91834986 10.95497364 9.91834986 7 10 C6.34 8.02 5.68 6.04 5 4 C4.67 4.66 4.34 5.32 4 6 C3.01 6 2.02 6 1 6 C0.93941406 6.88042969 0.87882813 7.76085937 0.81640625 8.66796875 C0.73261719 9.82941406 0.64882812 10.99085937 0.5625 12.1875 C0.48128906 13.33605469 0.40007813 14.48460937 0.31640625 15.66796875 C0.04596188 18.51598171 -0.37521747 21.21210482 -1 24 C-3.87231652 22.71240983 -6.19225634 21.62122831 -8 19 C-8.51973722 14.99059858 -8.59913772 12.85591103 -6.25 9.5 C-5.13625 8.2625 -5.13625 8.2625 -4 7 C-2.57818095 4.70875782 -1.29847467 2.36507887 0 0 Z " fill="#F5B45E" transform="translate(8,0)"/>
<path d="M0 0 C0.81797562 -0.00630432 1.63595123 -0.01260864 2.47871399 -0.019104 C3.3548082 -0.01505554 4.2309024 -0.01100708 5.13354492 -0.00683594 C6.49850349 -0.00970612 6.49850349 -0.00970612 7.89103699 -0.01263428 C9.81505612 -0.01399406 11.73908448 -0.01031206 13.66308594 -0.00195312 C16.59290468 0.00871222 19.52210507 -0.00183626 22.4519043 -0.01464844 C24.32495252 -0.01332608 26.19800035 -0.01076211 28.07104492 -0.00683594 C29.37607719 -0.01290863 29.37607719 -0.01290863 30.70747375 -0.019104 C35.7700412 0.01946841 40.05777375 0.41764828 44.80151367 2.25878906 C45.46151367 3.24878906 46.12151367 4.23878906 46.80151367 5.25878906 C47.13151367 4.26878906 47.46151367 3.27878906 47.80151367 2.25878906 C48.79151367 2.25878906 49.78151367 2.25878906 50.80151367 2.25878906 C51.17074444 9.76648137 51.17074444 9.76648137 49.30151367 12.25878906 C48.80651367 12.58878906 48.31151367 12.91878906 47.80151367 13.25878906 C47.30651367 10.78378906 47.30651367 10.78378906 46.80151367 8.25878906 C46.14151367 8.25878906 45.48151367 8.25878906 44.80151367 8.25878906 C44.80151367 8.91878906 44.80151367 9.57878906 44.80151367 10.25878906 C36.8653758 10.28191671 28.92925192 10.2997063 20.99308872 10.31060123 C17.30836869 10.31582914 13.62367164 10.32292511 9.93896484 10.33422852 C6.38580536 10.34506068 2.83266805 10.35106659 -0.72050667 10.35366631 C-2.07894299 10.35551996 -3.43737804 10.35913944 -4.79580498 10.36451912 C-6.69230856 10.37173381 -8.58883426 10.37219715 -10.48535156 10.37231445 C-12.10750832 10.37564537 -12.10750832 10.37564537 -13.76243591 10.37904358 C-16.19848633 10.25878906 -16.19848633 10.25878906 -17.19848633 9.25878906 C-17.23929416 7.25920543 -17.24102989 5.25833652 -17.19848633 3.25878906 C-16.53848633 4.57878906 -15.87848633 5.89878906 -15.19848633 7.25878906 C1.63151367 7.58878906 18.46151367 7.91878906 35.80151367 8.25878906 C35.30651367 5.78378906 35.30651367 5.78378906 34.80151367 3.25878906 C20.61151367 2.92878906 6.42151367 2.59878906 -8.19848633 2.25878906 C-4.63678324 0.47793752 -3.65638144 0.00812421 0 0 Z " fill="#414849" transform="translate(84.198486328125,68.7412109375)"/>
<path d="M0 0 C2.64 0 5.28 0 8 0 C10.33274709 6.06514244 11.56529469 11.94740869 10.375 18.375 C8.00373133 22.90196746 4.99141845 23.68605082 0.25 25.1875 C-7.01721721 26.68551241 -14.62086982 26.15249638 -22 26 C-22 24.02 -22 22.04 -22 20 C-21.66355469 20.49113281 -21.32710938 20.98226562 -20.98046875 21.48828125 C-17.98756677 23.77280406 -14.91204865 23.318576 -11.3125 23.1875 C-10.61060547 23.17396484 -9.90871094 23.16042969 -9.18554688 23.14648438 C-7.45670171 23.11120182 -5.72825235 23.05739583 -4 23 C-4 21.68 -4 20.36 -4 19 C-8.62 19 -13.24 19 -18 19 C-18 18.01 -18 17.02 -18 16 C-13.38 15.67 -8.76 15.34 -4 15 C-3.67 11.37 -3.34 7.74 -3 4 C-2.01 4 -1.02 4 0 4 C0 9.61 0 15.22 0 21 C2.31 20.01 4.62 19.02 7 18 C6.67 12.72 6.34 7.44 6 2 C4.02 2 2.04 2 0 2 C0 1.34 0 0.68 0 0 Z " fill="#4F5654" transform="translate(92,29)"/>
<path d="M0 0 C2.31 0 4.62 0 7 0 C6.67 0.99 6.34 1.98 6 3 C5.34 2.67 4.68 2.34 4 2 C3.87625 2.804375 3.7525 3.60875 3.625 4.4375 C3.315625 5.7059375 3.315625 5.7059375 3 7 C2.01 7.495 2.01 7.495 1 8 C-1.03190396 15.16513503 -2.25934943 22.59349429 -3 30 C-6.40945841 26.8593052 -8.7987384 23.48905793 -11.25 19.5625 C-11.95640625 18.45003906 -12.6628125 17.33757813 -13.390625 16.19140625 C-14.97345202 13.0526449 -15.38549664 11.43734501 -15 8 C-15.66 8 -16.32 8 -17 8 C-16.67 6.68 -16.34 5.36 -16 4 C-15.34 4.66 -14.68 5.32 -14 6 C-10.457201 7.180933 -7.71640139 7.27028374 -4 7 C-3.34 6.01 -2.68 5.02 -2 4 C-1.01 4 -0.02 4 1 4 C0.67 2.68 0.34 1.36 0 0 Z " fill="#D49843" transform="translate(73,23)"/>
<path d="M0 0 C5.99959229 4.95618494 11.80855449 10.19226619 17 16 C17 16.66 17 17.32 17 18 C10.36906706 17.65226572 4.946072 17.03910346 -1 14 C0.32 15.65 1.64 17.3 3 19 C0.75 19.3125 0.75 19.3125 -2 19 C-4.99232908 16.33116596 -5.89407544 14.57199264 -6.625 10.625 C-5.78859557 5.77385433 -3.44321984 3.3714861 0 0 Z " fill="#545B5B" transform="translate(9,63)"/>
<path d="M0 0 C1.65 0.66 3.3 1.32 5 2 C5 1.34 5 0.68 5 0 C5.99 0 6.98 0 8 0 C8 0.66 8 1.32 8 2 C9.25490234 1.76216797 9.25490234 1.76216797 10.53515625 1.51953125 C17.82851903 0.42593796 26.81603267 -0.83990831 33.4375 3 C34.7059375 3.99 34.7059375 3.99 36 5 C36 5.99 36 6.98 36 8 C35.34 8 34.68 8 34 8 C33.67 9.32 33.34 10.64 33 12 C32.60844727 11.36497559 32.21689453 10.72995117 31.81347656 10.07568359 C28.35108005 6.11266593 22.99864021 6.46022952 18 6 C11.75569428 5.60941591 5.50416958 5.49398539 -0.75 5.375 C-2.42970555 5.33672166 -4.10939355 5.29766462 -5.7890625 5.2578125 C-9.85922861 5.16291066 -13.92948588 5.07850004 -18 5 C-18 4.67 -18 4.34 -18 4 C-16.5459375 3.814375 -16.5459375 3.814375 -15.0625 3.625 C-13.5465625 3.315625 -13.5465625 3.315625 -12 3 C-11.67 2.34 -11.34 1.68 -11 1 C-10.28972656 1.01160156 -9.57945313 1.02320312 -8.84765625 1.03515625 C-7.92855469 1.04417969 -7.00945312 1.05320312 -6.0625 1.0625 C-4.68771484 1.07990234 -4.68771484 1.07990234 -3.28515625 1.09765625 C-1.03406673 1.25949049 -1.03406673 1.25949049 0 0 Z " fill="#4F5555" transform="translate(98,63)"/>
<path d="M0 0 C3.96 0.33 7.92 0.66 12 1 C12.2396943 6.63281599 11.38529821 11.54538831 10 17 C9.34 17 8.68 17 8 17 C7.67 16.01 7.34 15.02 7 14 C6.67 14.99 6.34 15.98 6 17 C3.69 17 1.38 17 -1 17 C-0.34 18.65 0.32 20.3 1 22 C0.01 22.66 -0.98 23.32 -2 24 C-4.61338725 15.83316483 -2.02641821 8.02123875 0 0 Z " fill="#525252" transform="translate(44,37)"/>
<path d="M0 0 C3.93265896 -0.04947698 7.86519714 -0.08575578 11.7980957 -0.10986328 C13.79319618 -0.12485495 15.78820946 -0.15026731 17.78320312 -0.17578125 C19.66362305 -0.18544922 19.66362305 -0.18544922 21.58203125 -0.1953125 C22.73936768 -0.20578613 23.8967041 -0.21625977 25.08911133 -0.22705078 C28 0 28 0 31 2 C31.6875 4.625 31.6875 4.625 32 7 C30.74896484 7.16435547 30.74896484 7.16435547 29.47265625 7.33203125 C23.30593208 8.20088242 17.65582677 9.17988121 11.90234375 11.609375 C9.35020631 12.13342786 8.1685073 11.33297999 6 10 C6.99 10 7.98 10 9 10 C9 7.36 9 4.72 9 2 C6.36 2 3.72 2 1 2 C0.67 2.66 0.34 3.32 0 4 C0 2.68 0 1.36 0 0 Z " fill="#F6BA3C" transform="translate(103,43)"/>
<path d="M0 0 C3.53862769 3.53862769 3.77006523 5.34791025 4.6875 10.1875 C4.81487549 10.85789307 4.94225098 11.52828613 5.07348633 12.21899414 C5.91969993 16.90410028 6.29025158 21.25922418 6 26 C5.01 26.33 4.02 26.66 3 27 C2.67 25.35 2.34 23.7 2 22 C1.34 22 0.68 22 0 22 C-0.66 22.99 -1.32 23.98 -2 25 C-3.32 25 -4.64 25 -6 25 C-6.33808686 22.93827387 -6.67027361 20.8755797 -7 18.8125 C-7.185625 17.66394531 -7.37125 16.51539062 -7.5625 15.33203125 C-7.93489477 12.49584607 -8.08596021 9.85280436 -8 7 C-7.1028125 7.7734375 -7.1028125 7.7734375 -6.1875 8.5625 C-5.465625 9.036875 -4.74375 9.51125 -4 10 C-3.01 9.67 -2.02 9.34 -1 9 C-0.67 6.03 -0.34 3.06 0 0 Z M-2 13 C-1 16 -1 16 -1 16 Z " fill="#FABC64" transform="translate(9,15)"/>
<path d="M0 0 C0.66 0.66 1.32 1.32 2 2 C5.35744112 2.24377883 5.35744112 2.24377883 9.125 2.125 C10.40632813 2.10695313 11.68765625 2.08890625 13.0078125 2.0703125 C13.99523438 2.04710937 14.98265625 2.02390625 16 2 C16 1.34 16 0.68 16 0 C29.41084041 -0.76779621 29.41084041 -0.76779621 33.0859375 1.0078125 C34.45561608 2.27154909 35.73068654 3.63548803 37 5 C38.78419053 5.92546909 38.78419053 5.92546909 40.6875 6.625 C45.29531568 8.53767821 45.29531568 8.53767821 47 11 C47.6875 13.6875 47.6875 13.6875 48 16 C47.34 16 46.68 16 46 16 C45.43410156 15.20851563 44.86820313 14.41703125 44.28515625 13.6015625 C41.43243014 10.35384355 39.64161349 10.09242551 35.4375 9.375 C28.22051409 8.11346103 28.22051409 8.11346103 26 5 C26 4.34 26 3.68 26 3 C25.525625 3.50015625 25.05125 4.0003125 24.5625 4.515625 C20.71800351 6.74261992 17.32695368 6.11633953 13 5.75 C12.19304688 5.69714844 11.38609375 5.64429688 10.5546875 5.58984375 C6.91530347 5.33160363 3.5287605 4.96148811 0 4 C0 2.68 0 1.36 0 0 Z " fill="#E19B3B" transform="translate(23,6)"/>
<path d="M0 0 C3.96 0 7.92 0 12 0 C12 3.96 12 7.92 12 12 C7.38 12 2.76 12 -2 12 C-1.125 3.375 -1.125 3.375 0 0 Z " fill="#62939A" transform="translate(76,32)"/>
<path d="M0 0 C0.9880513 0.00068733 0.9880513 0.00068733 1.99606323 0.00138855 C3.38964642 0.00440363 4.78322645 0.01226768 6.17675781 0.0246582 C8.27681876 0.04272894 10.37643244 0.04516883 12.4765625 0.04492188 C19.76104396 0.0647008 26.95038656 0.28916481 34.1796875 1.23046875 C35.1796875 4.23046875 35.1796875 4.23046875 36.1796875 9.23046875 C17.6996875 9.23046875 -0.7803125 9.23046875 -19.8203125 9.23046875 C-19.8203125 7.25046875 -19.8203125 5.27046875 -19.8203125 3.23046875 C-19.1603125 4.55046875 -18.5003125 5.87046875 -17.8203125 7.23046875 C-0.9903125 7.56046875 15.8396875 7.89046875 33.1796875 8.23046875 C32.6846875 5.75546875 32.6846875 5.75546875 32.1796875 3.23046875 C17.9896875 2.90046875 3.7996875 2.57046875 -10.8203125 2.23046875 C-6.57907709 0.10985105 -4.64486755 -0.01571919 0 0 Z " fill="#34393A" transform="translate(86.8203125,68.76953125)"/>
<path d="M0 0 C0.33 0.66 0.66 1.32 1 2 C4.63 2 8.26 2 12 2 C12 2.33 12 2.66 12 3 C9.03 3 6.06 3 3 3 C3.33 3.66 3.66 4.32 4 5 C14.99757601 8.16933026 26.65068997 8.96158089 38 10 C37.67 11.32 37.34 12.64 37 14 C33.69949495 15.10016835 31.84517388 14.87438301 28.5625 13.8125 C21.8960226 11.82886066 15.11439831 10.67360911 8.26196289 9.53442383 C7.3827417 9.37868896 6.50352051 9.2229541 5.59765625 9.0625 C4.80883057 8.92972656 4.02000488 8.79695313 3.20727539 8.66015625 C0.61331692 7.88435007 -1.00354896 6.81687006 -3 5 C-3 3 -3 3 -1.5 1.375 C-1.005 0.92125 -0.51 0.4675 0 0 Z " fill="#F9AE49" transform="translate(14,8)"/>
<path d="M0 0 C1.32 0 2.64 0 4 0 C4.125 2.875 4.125 2.875 4 6 C2 8 2 8 -1.07275391 8.22705078 C-2.36101074 8.21657715 -3.64926758 8.20610352 -4.9765625 8.1953125 C-5.66181 8.1924826 -6.3470575 8.18965271 -7.05307007 8.18673706 C-9.24389027 8.17553281 -11.43430316 8.15042859 -13.625 8.125 C-15.1093691 8.11497048 -16.5937446 8.10584458 -18.078125 8.09765625 C-21.71888261 8.07559294 -25.35940156 8.04106176 -29 8 C-29 7.01 -29 6.02 -29 5 C-27.90042969 4.96261719 -26.80085938 4.92523438 -25.66796875 4.88671875 C-11.93254441 5.04499859 -11.93254441 5.04499859 0 0 Z " fill="#E3A44A" transform="translate(99,50)"/>
<path d="M0 0 C0.33 0.66 0.66 1.32 1 2 C3.2827051 2.26224288 5.5791389 2.40761122 7.875 2.5 C14.38016997 2.81757277 20.62124463 3.6340711 27 5 C27 5.99 27 6.98 27 8 C19.13010757 8.38148491 11.70416307 7.84316877 3.9375 6.625 C3.11660889 6.49891357 2.29571777 6.37282715 1.44995117 6.24291992 C-2.42399561 5.60053483 -5.5197402 4.88893597 -9 3 C-9 2.34 -9 1.68 -9 1 C-4.545 0.505 -4.545 0.505 0 0 Z " fill="#FCBD66" transform="translate(26,10)"/>
<path d="M0 0 C6.83183596 -0.05089944 13.66362262 -0.08581716 20.49560547 -0.10986328 C22.81756416 -0.11989264 25.13951032 -0.1335194 27.46142578 -0.15087891 C30.80764877 -0.17526201 34.15370408 -0.18651404 37.5 -0.1953125 C38.5305249 -0.20563507 39.5610498 -0.21595764 40.62280273 -0.22659302 C46.44311844 -0.22748981 51.42041926 0.32031371 57 2 C57 2.33 57 2.66 57 3 C38.19 3 19.38 3 0 3 C0 2.01 0 1.02 0 0 Z " fill="#F6AB46" transform="translate(72,59)"/>
<path d="M0 0 C0.66 0 1.32 0 2 0 C3.35439668 2.70879335 3.06501451 5.00933268 3 8 C9.08408472 8.19814261 9.08408472 8.19814261 15 7 C15.33 8.65 15.66 10.3 16 12 C14.02 12.99 12.04 13.98 10 15 C9.67 14.01 9.34 13.02 9 12 C8.01 12.66 7.02 13.32 6 14 C5.74969023 16.58380177 5.74969023 16.58380177 6 19 C4.1875 18.8125 4.1875 18.8125 2 18 C-0.85477983 14.19591989 -1.36590193 11.45561838 -1.25 6.75 C-1.23453125 5.69296875 -1.2190625 4.6359375 -1.203125 3.546875 C-1 1 -1 1 0 0 Z " fill="#525857" transform="translate(5,39)"/>
<path d="M0 0 C4.05281712 1.22527029 7.44360764 2.69880494 11 5 C10.01 8.3 9.02 11.6 8 15 C6.68 14.67 5.36 14.34 4 14 C3.67 12.68 3.34 11.36 3 10 C0.03 9.505 0.03 9.505 -3 9 C-2.01 6.03 -1.02 3.06 0 0 Z " fill="#525252" transform="translate(30,34)"/>
<path d="M0 0 C11.22 0 22.44 0 34 0 C34.495 1.485 34.495 1.485 35 3 C33.54182203 3.16802051 32.0834516 3.33437143 30.625 3.5 C29.40683594 3.63921875 29.40683594 3.63921875 28.1640625 3.78125 C26 4 26 4 24 4 C24 3.34 24 2.68 24 2 C23.01 2 22.02 2 21 2 C21 2.66 21 3.32 21 4 C20.236875 3.814375 19.47375 3.62875 18.6875 3.4375 C15.91032625 2.77180827 15.91032625 2.77180827 13 4 C10.95703125 3.87890625 10.95703125 3.87890625 8.8125 3.5625 C7.554375 3.376875 6.29625 3.19125 5 3 C5 3.66 5 4.32 5 5 C4.01 5 3.02 5 2 5 C2 4.34 2 3.68 2 3 C1.01 2.67 0.02 2.34 -1 2 C-0.67 1.34 -0.34 0.68 0 0 Z " fill="#61523B" transform="translate(82,61)"/>
<path d="M0 0 C0.66 0 1.32 0 2 0 C4.29612756 19.96810934 4.29612756 19.96810934 4 29 C3.01 28.34 2.02 27.68 1 27 C1 25.68 1 24.36 1 23 C0.4225 23.33 -0.155 23.66 -0.75 24 C-3 25 -3 25 -7 25 C-7 24.01 -7 23.02 -7 22 C-6.01 21.67 -5.02 21.34 -4 21 C-0.0910749 14.53523926 -0.29714307 7.38759156 0 0 Z " fill="#E19C39" transform="translate(19,23)"/>
<path d="M0 0 C3.96 0.33 7.92 0.66 12 1 C12.125 7.625 12.125 7.625 11 11 C9.35 10.67 7.7 10.34 6 10 C6 9.34 6 8.68 6 8 C4.35 8.33 2.7 8.66 1 9 C-1.125 3.375 -1.125 3.375 0 0 Z " fill="#5B5B5B" transform="translate(44,37)"/>
<path d="M0 0 C4.69617864 5.71814498 6.68678269 10.7997917 6.2109375 18.1640625 C6.14132813 18.76992188 6.07171875 19.37578125 6 20 C2.55751941 16.85214612 0.14078806 13.34193723 -2.25 9.375 C-2.61351562 8.78976563 -2.97703125 8.20453125 -3.3515625 7.6015625 C-6 3.26051457 -6 3.26051457 -6 1 C-3.92446352 0.4465236 -2.15634036 0 0 0 Z " fill="#E49B3B" transform="translate(64,33)"/>
<path d="M0 0 C0 1.98 0 3.96 0 6 C-6.6 6 -13.2 6 -20 6 C-19.67 5.01 -19.34 4.02 -19 3 C-12.89651256 0.05724713 -6.65343298 -0.32194031 0 0 Z " fill="#8A6D46" transform="translate(135,50)"/>
<path d="M0 0 C0.598125 0.495 1.19625 0.99 1.8125 1.5 C3.97029994 3.28276418 3.97029994 3.28276418 7 3 C6.67 4.98 6.34 6.96 6 9 C6.66 9 7.32 9 8 9 C8.6875 11.8125 8.6875 11.8125 9 15 C7.8125 16.875 7.8125 16.875 6 18 C4.68 18 3.36 18 2 18 C1.66191314 15.93827387 1.32972639 13.8755797 1 11.8125 C0.814375 10.66394531 0.62875 9.51539063 0.4375 8.33203125 C0.06510523 5.49584607 -0.08596021 2.85280436 0 0 Z " fill="#F5B85F" transform="translate(1,22)"/>
<path d="M0 0 C4.39656173 -0.02465504 8.7930872 -0.04283842 13.18969727 -0.05493164 C14.68644918 -0.05997121 16.18319616 -0.06680287 17.67993164 -0.07543945 C19.82699807 -0.08752159 21.97399962 -0.09323191 24.12109375 -0.09765625 C26.06133423 -0.10551147 26.06133423 -0.10551147 28.04077148 -0.11352539 C31 0 31 0 32 1 C32 2.65 32 4.3 32 6 C24.41 6 16.82 6 9 6 C9 5.67 9 5.34 9 5 C9.91523437 4.86722656 10.83046875 4.73445313 11.7734375 4.59765625 C12.96195313 4.42105469 14.15046875 4.24445313 15.375 4.0625 C16.55835937 3.88847656 17.74171875 3.71445313 18.9609375 3.53515625 C21.90702381 3.16537214 21.90702381 3.16537214 24 2 C16.08 1.67 8.16 1.34 0 1 C0 0.67 0 0.34 0 0 Z " fill="#454C4C" transform="translate(88,71)"/>
<path d="M0 0 C3.92389479 0.54498539 5.89584594 1.62623513 9 4 C10.175625 4.495 11.35125 4.99 12.5625 5.5 C17.32264529 7.57715431 17.32264529 7.57715431 19 10 C19.6875 12.6875 19.6875 12.6875 20 15 C19.34 15 18.68 15 18 15 C17.43539062 14.20980469 16.87078125 13.41960938 16.2890625 12.60546875 C13.4279979 9.34893277 11.58824766 9.05909129 7.375 8.3125 C1.17744154 7.17744154 1.17744154 7.17744154 -1 5 C-0.625 2.375 -0.625 2.375 0 0 Z " fill="#DA973A" transform="translate(51,7)"/>
<path d="M0 0 C1.65 0 3.3 0 5 0 C6.02766017 3.08298051 6.16598738 5.33130426 6.1875 8.5625 C6.20167969 9.53316406 6.21585937 10.50382812 6.23046875 11.50390625 C6 14 6 14 4 16 C2.68 16 1.36 16 0 16 C0 10.72 0 5.44 0 0 Z " fill="#6F9BA2" transform="translate(93,32)"/>
<path d="M0 0 C0.66 0.33 1.32 0.66 2 1 C3.37342831 1.0689472 4.75002102 1.08467708 6.125 1.0625 C7.40375 1.041875 8.6825 1.02125 10 1 C10 3.64 10 6.28 10 9 C7.36 9 4.72 9 2 9 C1.67 8.01 1.34 7.02 1 6 C0.34 5.67 -0.32 5.34 -1 5 C-0.67 3.35 -0.34 1.7 0 0 Z " fill="#9E7948" transform="translate(102,44)"/>
<path d="M0 0 C0.66 0.33 1.32 0.66 2 1 C2 3.31 2 5.62 2 8 C0.68 8.33 -0.64 8.66 -2 9 C-2.02578125 9.84304688 -2.0515625 10.68609375 -2.078125 11.5546875 C-2.13484375 12.65039062 -2.1915625 13.74609375 -2.25 14.875 C-2.31960938 16.51082031 -2.31960938 16.51082031 -2.390625 18.1796875 C-3 21 -3 21 -5.046875 22.3828125 C-5.69140625 22.58648438 -6.3359375 22.79015625 -7 23 C-8.32 21.68 -9.64 20.36 -11 19 C-10.505 17.515 -10.505 17.515 -10 16 C-9.54625 16.66 -9.0925 17.32 -8.625 18 C-8.08875 18.66 -7.5525 19.32 -7 20 C-6.34 20 -5.68 20 -5 20 C-5.01160156 19.24074219 -5.02320313 18.48148438 -5.03515625 17.69921875 C-5.04417969 16.70535156 -5.05320312 15.71148437 -5.0625 14.6875 C-5.07410156 13.70136719 -5.08570313 12.71523437 -5.09765625 11.69921875 C-5 9 -5 9 -4 6 C-3.96125079 4.33378384 -3.9549714 2.66605828 -4 1 C-3.67 1.66 -3.34 2.32 -3 3 C-2.01 3 -1.02 3 0 3 C0 2.01 0 1.02 0 0 Z " fill="#716955" transform="translate(12,3)"/>
<path d="M0 0 C4.95 0 9.9 0 15 0 C15 1.32 15 2.64 15 4 C9.94997778 5.03590199 5.12583611 5.10251672 0 5 C0 3.35 0 1.7 0 0 Z " fill="#5D8D94" transform="translate(73,48)"/>
<path d="M0 0 C1.98 0.495 1.98 0.495 4 1 C4 1.99 4 2.98 4 4 C4.99 4 5.98 4 7 4 C7.33 3.01 7.66 2.02 8 1 C8.33 1.66 8.66 2.32 9 3 C9.66 3 10.32 3 11 3 C10.34 4.65 9.68 6.3 9 8 C8.01 8 7.02 8 6 8 C5.67 8.66 5.34 9.32 5 10 C2.5625 9.3125 2.5625 9.3125 0 8 C-1.1807689 4.71071522 -1.1157177 3.34715311 0 0 Z " fill="#404040" transform="translate(37,71)"/>
<path d="M0 0 C6.27 0 12.54 0 19 0 C19.66 1.65 20.32 3.3 21 5 C20.34644531 4.84660156 19.69289062 4.69320312 19.01953125 4.53515625 C15.24507841 3.86620406 11.51094004 3.64592703 7.6875 3.4375 C6.94693359 3.39431641 6.20636719 3.35113281 5.44335938 3.30664062 C3.62908536 3.20129568 1.8145645 3.10021684 0 3 C0 2.01 0 1.02 0 0 Z " fill="#FCC06F" transform="translate(114,44)"/>
<path d="M0 0 C1.65 0 3.3 0 5 0 C5.144375 0.639375 5.28875 1.27875 5.4375 1.9375 C5.81007181 3.97545146 5.81007181 3.97545146 7 5 C7.45459858 7.65463121 7.70243238 10.32189138 8 13 C7.01 13 6.02 13 5 13 C5 12.01 5 11.02 5 10 C4.071875 9.566875 4.071875 9.566875 3.125 9.125 C1 8 1 8 -1 6 C-0.625 2.875 -0.625 2.875 0 0 Z " fill="#515151" transform="translate(36,62)"/>
<path d="M0 0 C1.65 0.33 3.3 0.66 5 1 C4.835 1.804375 4.67 2.60875 4.5 3.4375 C3.92197122 6.39989752 4.16108229 8.55460529 4.5 11.5625 C4.5928125 12.38878906 4.685625 13.21507813 4.78125 14.06640625 C4.8534375 14.70449219 4.925625 15.34257813 5 16 C3.68 16.33 2.36 16.66 1 17 C-1 10.25 -1 10.25 -1 8 C-0.34 8 0.32 8 1 8 C0.835 6.865625 0.67 5.73125 0.5 4.5625 C0 1 0 1 0 0 Z " fill="#555555" transform="translate(46,55)"/>
<path d="M0 0 C0.33 0.66 0.66 1.32 1 2 C4.04581269 2.46954261 4.04581269 2.46954261 7.5625 2.625 C8.76003906 2.69976562 9.95757812 2.77453125 11.19140625 2.8515625 C12.11824219 2.90054687 13.04507813 2.94953125 14 3 C14 3.33 14 3.66 14 4 C-3.39568345 6.24460432 -3.39568345 6.24460432 -9 3 C-9 2.34 -9 1.68 -9 1 C-4.545 0.505 -4.545 0.505 0 0 Z " fill="#FCD398" transform="translate(26,10)"/>
<path d="M0 0 C1.54435385 1.54435385 3.07837777 3.08464799 4.5625 4.6875 C5.92173659 6.22475645 5.92173659 6.22475645 8 6 C7.34 7.98 6.68 9.96 6 12 C3.03 11.67 0.06 11.34 -3 11 C-2.35383073 9.70766147 -1.66820319 8.43399367 -0.9375 7.1875 C0.15263079 4.64386148 0.15220542 2.7396976 0 0 Z " fill="#4A4A4A" transform="translate(29,44)"/>
<path d="M0 0 C-1.01953125 2.48046875 -1.01953125 2.48046875 -3 5 C-5.78599571 5.38060051 -7.93372751 5.47962905 -10.6875 5.3125 C-11.7403418 5.27866211 -11.7403418 5.27866211 -12.81445312 5.24414062 C-14.5438833 5.18531647 -16.27221438 5.09563389 -18 5 C-17 3 -17 3 -13.9453125 1.89453125 C-12.68460937 1.53746094 -11.42390625 1.18039063 -10.125 0.8125 C-8.86945313 0.44769531 -7.61390625 0.08289062 -6.3203125 -0.29296875 C-3 -1 -3 -1 0 0 Z " fill="#F9C176" transform="translate(101,52)"/>
<path d="M0 0 C2.70108504 0.090916 5.36930311 0.23740766 8.0625 0.4375 C9.20041992 0.51581055 9.20041992 0.51581055 10.36132812 0.59570312 C12.24121722 0.72575835 14.12065685 0.86228038 16 1 C16 1.99 16 2.98 16 4 C11.32798795 5.20568053 6.78503708 5.09382426 2 5 C1.67 4.01 1.34 3.02 1 2 C0.34 1.67 -0.32 1.34 -1 1 C-0.67 0.67 -0.34 0.34 0 0 Z " fill="#FABD6D" transform="translate(23,4)"/>
<path d="M0 0 C0.66 0 1.32 0 2 0 C2.66 1.65 3.32 3.3 4 5 C6.31 5 8.62 5 11 5 C11.33 6.32 11.66 7.64 12 9 C9.36 9.33 6.72 9.66 4 10 C3.34 8.02 2.68 6.04 2 4 C1.67 4.66 1.34 5.32 1 6 C0.01 6 -0.98 6 -2 6 C-1.49396008 3.83125748 -1.00016187 2.00032373 0 0 Z " fill="#C99A56" transform="translate(11,0)"/>
<path d="M0 0 C0.4125 0.66 0.825 1.32 1.25 2 C1.8275 2.66 2.405 3.32 3 4 C4.32 4 5.64 4 7 4 C7 4.66 7 5.32 7 6 C8.65 6.33 10.3 6.66 12 7 C12 7.33 12 7.66 12 8 C9.03 8 6.06 8 3 8 C3 8.66 3 9.32 3 10 C1.02 10.99 1.02 10.99 -1 12 C-2.09898702 8.70303895 -1.87124444 7.59505097 -1.0625 4.3125 C-0.86785156 3.50425781 -0.67320313 2.69601563 -0.47265625 1.86328125 C-0.31667969 1.24839844 -0.16070312 0.63351563 0 0 Z " fill="#474747" transform="translate(43,41)"/>
<path d="M0 0 C2.875 0.25 2.875 0.25 6 1 C7.25 2.9375 7.25 2.9375 8 5 C8.66 5.66 9.32 6.32 10 7 C9.01 7.33 8.02 7.66 7 8 C5.68 6.02 4.36 4.04 3 2 C2.67 3.98 2.34 5.96 2 8 C0.35 8.33 -1.3 8.66 -3 9 C-2.01 6.03 -1.02 3.06 0 0 Z " fill="#444444" transform="translate(27,43)"/>
<path d="M0 0 C6.93 0 13.86 0 21 0 C21.33 0.66 21.66 1.32 22 2 C20.54182203 2.16802051 19.0834516 2.33437143 17.625 2.5 C16.40683594 2.63921875 16.40683594 2.63921875 15.1640625 2.78125 C13 3 13 3 11 3 C11 2.34 11 1.68 11 1 C10.01 1 9.02 1 8 1 C8 1.66 8 2.32 8 3 C7.236875 2.814375 6.47375 2.62875 5.6875 2.4375 C2.91032625 1.77180827 2.91032625 1.77180827 0 3 C0 2.01 0 1.02 0 0 Z " fill="#2E3233" transform="translate(95,62)"/>
<path d="M0 0 C1.98 0.66 3.96 1.32 6 2 C6 2.99 6 3.98 6 5 C5.34 5 4.68 5 4 5 C4 5.66 4 6.32 4 7 C1.69 7.66 -0.62 8.32 -3 9 C-2.01 6.03 -1.02 3.06 0 0 Z " fill="#747474" transform="translate(30,34)"/>
<path d="M0 0 C0.66 0 1.32 0 2 0 C3.625 2.5 3.625 2.5 5 5 C-3.50262969 5.36011137 -11.61090382 4.2527717 -20 3 C-20 2.67 -20 2.34 -20 2 C-18.72382813 2.02320313 -17.44765625 2.04640625 -16.1328125 2.0703125 C-14.4635475 2.08906829 -12.7942762 2.10726869 -11.125 2.125 C-9.86236328 2.15013672 -9.86236328 2.15013672 -8.57421875 2.17578125 C-7.36572266 2.18544922 -7.36572266 2.18544922 -6.1328125 2.1953125 C-5.38918457 2.20578613 -4.64555664 2.21625977 -3.87939453 2.22705078 C-1.75509765 2.1665597 -1.75509765 2.1665597 0 0 Z " fill="#F7B04F" transform="translate(47,9)"/>
<path d="M0 0 C0.33 1.65 0.66 3.3 1 5 C-0.98 5.99 -2.96 6.98 -5 8 C-5.33 6.68 -5.66 5.36 -6 4 C-7.32 4 -8.64 4 -10 4 C-10 3.34 -10 2.68 -10 2 C-3.375 0 -3.375 0 0 0 Z " fill="#A48B63" transform="translate(20,46)"/>
<path d="M0 0 C4 0 4 0 6 1 C5.34 2.32 4.68 3.64 4 5 C6.64 5.33 9.28 5.66 12 6 C12 6.33 12 6.66 12 7 C8.04 7 4.08 7 0 7 C-0.33 7.66 -0.66 8.32 -1 9 C-1.33 8.01 -1.66 7.02 -2 6 C-1.34 6 -0.68 6 0 6 C0 4.02 0 2.04 0 0 Z " fill="#4A504F" transform="translate(76,24)"/>
<path d="M0 0 C1.32 0.99 2.64 1.98 4 3 C4.99 3 5.98 3 7 3 C6.67 5.64 6.34 8.28 6 11 C5.01 10.01 4.02 9.02 3 8 C2.67 9.65 2.34 11.3 2 13 C1.67 13 1.34 13 1 13 C0.67 8.71 0.34 4.42 0 0 Z " fill="#E8A241" transform="translate(1,22)"/>
<path d="M0 0 C0.99 0 1.98 0 3 0 C3.36923077 7.50769231 3.36923077 7.50769231 1.5 10 C1.005 10.33 0.51 10.66 0 11 C-0.33 9.35 -0.66 7.7 -1 6 C-1.66 6 -2.32 6 -3 6 C-3 4.35 -3 2.7 -3 1 C-2.34 1.66 -1.68 2.32 -1 3 C-0.67 2.01 -0.34 1.02 0 0 Z " fill="#414747" transform="translate(132,71)"/>
<path d="M0 0 C2.0625 0.4375 2.0625 0.4375 4 1 C4.6875 2.8125 4.6875 2.8125 5 5 C3.5625 6.75 3.5625 6.75 2 8 C0.68 7.34 -0.64 6.68 -2 6 C-1.125 1.125 -1.125 1.125 0 0 Z " fill="#737167" transform="translate(53,19)"/>
<path d="M0 0 C1.98 0.495 1.98 0.495 4 1 C4.66 4.3 5.32 7.6 6 11 C0.76470588 8.38235294 0.76470588 8.38235294 -1 6 C-1.25 3.375 -1.25 3.375 -1 1 C-0.67 0.67 -0.34 0.34 0 0 Z " fill="#D8973B" transform="translate(1,13)"/>
<path d="M0 0 C4.92448733 1.1587029 8.37007256 2.26330999 12 6 C12.8125 8.75 12.8125 8.75 13 11 C12.34 11 11.68 11 11 11 C10.4225 10.2575 9.845 9.515 9.25 8.75 C6.79761842 5.75264473 4.2354839 4.08508962 1 2 C0.67 1.34 0.34 0.68 0 0 Z " fill="#5B605D" transform="translate(58,11)"/>
<path d="M0 0 C1.32 0 2.64 0 4 0 C4.125 2.875 4.125 2.875 4 6 C2 8 2 8 -1.6953125 8.1953125 C-3.17200108 8.182009 -4.64862358 8.15814835 -6.125 8.125 C-6.87910156 8.11597656 -7.63320312 8.10695313 -8.41015625 8.09765625 C-10.27357254 8.0740687 -12.13682593 8.03819719 -14 8 C-14 7.67 -14 7.34 -14 7 C-13.08476563 6.97421875 -12.16953125 6.9484375 -11.2265625 6.921875 C-10.03804688 6.86515625 -8.84953125 6.8084375 -7.625 6.75 C-6.44164063 6.70359375 -5.25828125 6.6571875 -4.0390625 6.609375 C-0.91868036 6.33023555 -0.91868036 6.33023555 0.4765625 4.078125 C1.25075914 1.95807413 1.25075914 1.95807413 0 0 Z " fill="#F4AC49" transform="translate(99,50)"/>
<path d="M0 0 C0.66 0 1.32 0 2 0 C3.54296875 2.1171875 3.54296875 2.1171875 5.1875 4.875 C5.73792969 5.77992187 6.28835937 6.68484375 6.85546875 7.6171875 C7.23316406 8.40351562 7.61085938 9.18984375 8 10 C7.67 10.66 7.34 11.32 7 12 C1.25 7.375 1.25 7.375 -1 4 C-0.625 1.8125 -0.625 1.8125 0 0 Z " fill="#FAC274" transform="translate(62,33)"/>
<path d="M0 0 C3.96 0.33 7.92 0.66 12 1 C10.515 2.485 10.515 2.485 9 4 C8.34 4 7.68 4 7 4 C7 3.34 7 2.68 7 2 C5.35 2 3.7 2 2 2 C2 3.65 2 5.3 2 7 C0.68 6.34 -0.64 5.68 -2 5 C-1.34 3.35 -0.68 1.7 0 0 Z " fill="#3A3A3A" transform="translate(23,55)"/>
<path d="M0 0 C0.66 0 1.32 0 2 0 C2.33 1.98 2.66 3.96 3 6 C0.83125748 5.49396008 -0.99967627 5.00016187 -3 4 C-5.0374763 3.77141886 -7.08040303 3.58975722 -9.125 3.4375 C-10.76855469 3.31181641 -10.76855469 3.31181641 -12.4453125 3.18359375 C-13.28835937 3.12300781 -14.13140625 3.06242187 -15 3 C-15 2.67 -15 2.34 -15 2 C-10.05 2 -5.1 2 0 2 C0 1.34 0 0.68 0 0 Z " fill="#515857" transform="translate(129,77)"/>
<path d="M0 0 C2.64 0 5.28 0 8 0 C8 2.31 8 4.62 8 7 C7.01 6.34 6.02 5.68 5 5 C4.34 5.66 3.68 6.32 3 7 C2.814375 5.824375 2.814375 5.824375 2.625 4.625 C2.20882007 1.85942178 2.20882007 1.85942178 0 0 Z " fill="#454545" transform="translate(48,38)"/>
<path d="M0 0 C0.66 0 1.32 0 2 0 C4 7.625 4 7.625 4 11 C3.01 11 2.02 11 1 11 C0.63890458 9.35567294 0.28629924 7.7094792 -0.0625 6.0625 C-0.25972656 5.14597656 -0.45695313 4.22945312 -0.66015625 3.28515625 C-0.77230469 2.53105469 -0.88445313 1.77695312 -1 1 C-0.67 0.67 -0.34 0.34 0 0 Z " fill="#8C8F8D" transform="translate(5,39)"/>
<path d="M0 0 C2.64 0 5.28 0 8 0 C8 3.63 8 7.26 8 11 C7.67 11 7.34 11 7 11 C6.67 8.03 6.34 5.06 6 2 C4.02 2 2.04 2 0 2 C0 1.34 0 0.68 0 0 Z " fill="#4C5353" transform="translate(92,29)"/>
<path d="M0 0 C4.17882671 2.56428003 7.12505529 5.01930733 10 9 C9.67 9.66 9.34 10.32 9 11 C7.5409857 9.70910257 6.08281149 8.41725561 4.625 7.125 C3.81289062 6.40570312 3.00078125 5.68640625 2.1640625 4.9453125 C0.74204921 3.66704062 -0.64794586 2.35205414 -2 1 C-1.34 0.67 -0.68 0.34 0 0 Z " fill="#FAD9AC" transform="translate(62,15)"/>
<path d="M0 0 C0.33 0.66 0.66 1.32 1 2 C1.66 2 2.32 2 3 2 C2.34 3.65 1.68 5.3 1 7 C0.01 7 -0.98 7 -2 7 C-2.33 7.66 -2.66 8.32 -3 9 C-2.5020163 5.26512223 -2.12508244 3.18762365 0 0 Z " fill="#313131" transform="translate(45,72)"/>
<path d="M0 0 C0.66 0.99 1.32 1.98 2 3 C-1.3 3 -4.6 3 -8 3 C-8 2.34 -8 1.68 -8 1 C-5.21136993 -0.39431504 -3.07921132 -0.25660094 0 0 Z " fill="#404646" transform="translate(128,81)"/>
<path d="M0 0 C2.31 0 4.62 0 7 0 C6.67 0.99 6.34 1.98 6 3 C5.34 2.67 4.68 2.34 4 2 C3.67 3.65 3.34 5.3 3 7 C2.01 6.67 1.02 6.34 0 6 C0 4.02 0 2.04 0 0 Z " fill="#9A8C69" transform="translate(73,23)"/>
<path d="M0 0 C0.99 0 1.98 0 3 0 C2.67 0.53625 2.34 1.0725 2 1.625 C0.79788698 4.05052826 0.79788698 4.05052826 1 7.125 C1 8.07375 1 9.0225 1 10 C0.34 10.66 -0.32 11.32 -1 12 C-1 10.02 -1 8.04 -1 6 C-1.66 5.67 -2.32 5.34 -3 5 C-1.6875 2.5 -1.6875 2.5 0 0 Z " fill="#EAA84A" transform="translate(8,0)"/>
<path d="M0 0 C2.64 0 5.28 0 8 0 C8 0.99 8 1.98 8 3 C5.36 3 2.72 3 0 3 C0 2.01 0 1.02 0 0 Z " fill="#444A4A" transform="translate(104,81)"/>
<path d="M0 0 C2.64 0 5.28 0 8 0 C8 0.99 8 1.98 8 3 C5.36 3 2.72 3 0 3 C0 2.01 0 1.02 0 0 Z " fill="#434A4A" transform="translate(82,81)"/>
<path d="M0 0 C2.475 0.495 2.475 0.495 5 1 C5 2.65 5 4.3 5 6 C3.68 5.67 2.36 5.34 1 5 C0.67 3.35 0.34 1.7 0 0 Z " fill="#828787" transform="translate(6,52)"/>
<path d="M0 0 C2.31 0.66 4.62 1.32 7 2 C4.60236815 4.39763185 3.66726502 4.34280586 0.375 4.625 C-0.44226563 4.69976562 -1.25953125 4.77453125 -2.1015625 4.8515625 C-2.72804688 4.90054688 -3.35453125 4.94953125 -4 5 C-2.68 3.35 -1.36 1.7 0 0 Z " fill="#616055" transform="translate(91,49)"/>
<path d="M0 0 C1.485 0.99 1.485 0.99 3 2 C2.34 5.63 1.68 9.26 1 13 C0.34 12.67 -0.32 12.34 -1 12 C-0.67 8.04 -0.34 4.08 0 0 Z " fill="#58605D" transform="translate(73,31)"/>
<path d="M0 0 C1.98 0 3.96 0 6 0 C6.33 1.32 6.66 2.64 7 4 C5.35 4 3.7 4 2 4 C1.34 2.68 0.68 1.36 0 0 Z " fill="#8E9493" transform="translate(16,5)"/>
<path d="M0 0 C2.0625 0.4375 2.0625 0.4375 4 1 C3.34 2.32 2.68 3.64 2 5 C0.68 5 -0.64 5 -2 5 C-1.125 1.125 -1.125 1.125 0 0 Z " fill="#535959" transform="translate(123,71)"/>
<path d="M0 0 C0.99 0.33 1.98 0.66 3 1 C1.62845496 3.95409701 0.01136276 6.44008376 -2 9 C-2.66 8.67 -3.32 8.34 -4 8 C-4 6.68 -4 5.36 -4 4 C-2.68 4 -1.36 4 0 4 C0 2.68 0 1.36 0 0 Z " fill="#3A3A3A" transform="translate(36,57)"/>
<path d="M0 0 C2.12966005 2.12966005 2.47624662 3.04068204 3.1875 5.875 C3.36667969 6.55304687 3.54585937 7.23109375 3.73046875 7.9296875 C4.02970718 10.22818556 3.69377386 11.80550964 3 14 C0.96006486 9.07015675 -0.40652968 5.42039575 0 0 Z " fill="#FDE0B9" transform="translate(8,25)"/>
<path d="M0 0 C0 0.99 0 1.98 0 3 C-2.64 3 -5.28 3 -8 3 C-8 2.34 -8 1.68 -8 1 C-5.29120665 -0.35439668 -2.99066732 -0.06501451 0 0 Z " fill="#444A49" transform="translate(101,81)"/>
<path d="M0 0 C0 3.69418201 -1.28179295 5.77836178 -3 9 C-3.99 8.34 -4.98 7.68 -6 7 C-6 6.34 -6 5.68 -6 5 C-5.01 5 -4.02 5 -3 5 C-3 4.01 -3 3.02 -3 2 C-2.01 1.34 -1.02 0.68 0 0 Z " fill="#3E4343" transform="translate(14,53)"/>
<path d="M0 0 C0 0.66 0 1.32 0 2 C-3.63 2 -7.26 2 -11 2 C-10.67 1.34 -10.34 0.68 -10 0 C-6.18015204 -0.77811718 -3.73159669 -1.24386556 0 0 Z " fill="#A5733A" transform="translate(127,53)"/>
<path d="M0 0 C0.33 0.99 0.66 1.98 1 3 C1.99 2.67 2.98 2.34 4 2 C4 3.98 4 5.96 4 8 C3.01 8 2.02 8 1 8 C1 7.34 1 6.68 1 6 C0.34 5.67 -0.32 5.34 -1 5 C-0.67 3.35 -0.34 1.7 0 0 Z " fill="#BE8A44" transform="translate(102,44)"/>
<path d="M0 0 C2.64 0 5.28 0 8 0 C8 0.99 8 1.98 8 3 C2.25 3.125 2.25 3.125 0 2 C0 1.34 0 0.68 0 0 Z " fill="#454C4C" transform="translate(111,64)"/>
<path d="M0 0 C2.89932357 2.39509338 3.50168276 4.31245243 4 8 C2.68 7.67 1.36 7.34 0 7 C0 4.69 0 2.38 0 0 Z " fill="#5D5D5D" transform="translate(29,44)"/>
<path d="M0 0 C0 0.66 0 1.32 0 2 C-2.64 2 -5.28 2 -8 2 C-8 1.34 -8 0.68 -8 0 C-4.71023192 -1.09658936 -3.28696233 -0.79953138 0 0 Z " fill="#424848" transform="translate(79,82)"/>
<path d="M0 0 C2.1875 0.3125 2.1875 0.3125 4 1 C2.68 2.32 1.36 3.64 0 5 C-0.99 4.34 -1.98 3.68 -3 3 C-1.75 1.4375 -1.75 1.4375 0 0 Z " fill="#474B49" transform="translate(18,51)"/>
<path d="M0 0 C2.01920337 1.30406884 4.01924973 2.63823419 6 4 C6 4.33 6 4.66 6 5 C4.35 5 2.7 5 1 5 C0.34 3.68 -0.32 2.36 -1 1 C-0.67 0.67 -0.34 0.34 0 0 Z " fill="#7D8383" transform="translate(6,77)"/>
<path d="M0 0 C1.9375 0.75 1.9375 0.75 4 2 C4.75 4.125 4.75 4.125 5 6 C3.68 5.67 2.36 5.34 1 5 C0.67 3.35 0.34 1.7 0 0 Z " fill="#2F2F2F" transform="translate(36,74)"/>
<path d="M0 0 C1.98 0 3.96 0 6 0 C6 0.66 6 1.32 6 2 C6.66 2.33 7.32 2.66 8 3 C5.69 3 3.38 3 1 3 C0.67 2.01 0.34 1.02 0 0 Z " fill="#484E4D" transform="translate(78,64)"/>
<path d="M0 0 C0.99 0.33 1.98 0.66 3 1 C3.6875 3.0625 3.6875 3.0625 4 5 C2.35 5 0.7 5 -1 5 C-1.33 4.01 -1.66 3.02 -2 2 C-1.34 2 -0.68 2 0 2 C0 1.34 0 0.68 0 0 Z " fill="#5E5E5E" transform="translate(47,61)"/>
<path d="M0 0 C0 0.99 0 1.98 0 3 C-1.65 3.33 -3.3 3.66 -5 4 C-5 3.34 -5 2.68 -5 2 C-5.66 1.67 -6.32 1.34 -7 1 C-3.375 -1.125 -3.375 -1.125 0 0 Z " fill="#595756" transform="translate(29,51)"/>
<path d="M0 0 C2.86724686 0.57344937 3.8614515 0.8614515 6 3 C4.68 3 3.36 3 2 3 C2 3.66 2 4.32 2 5 C1.01 4.67 0.02 4.34 -1 4 C-0.67 2.68 -0.34 1.36 0 0 Z " fill="#696969" transform="translate(44,37)"/>
<path d="M0 0 C0.99 0 1.98 0 3 0 C3 1.32 3 2.64 3 4 C1.02 4.99 1.02 4.99 -1 6 C-1.042721 4.33388095 -1.04063832 2.66617115 -1 1 C-0.67 0.67 -0.34 0.34 0 0 Z " fill="#9E855D" transform="translate(1,13)"/>
<path d="M0 0 C0.99 0.33 1.98 0.66 3 1 C3 2.32 3 3.64 3 5 C1.68 5 0.36 5 -1 5 C-0.67 3.35 -0.34 1.7 0 0 Z " fill="#737267" transform="translate(51,7)"/>
</svg>
