<svg width="354" height="39" viewBox="0 0 354 39" fill="none" xmlns="http://www.w3.org/2000/svg">
<g filter="url(#filter0_d_185_4)">
<mask id="mask0_185_4" style="mask-type:luminance" maskUnits="userSpaceOnUse" x="0" y="0" width="340" height="15">
<path d="M0 14.306H340V2.28882e-05H0V14.306Z" fill="white"/>
</mask>
<g mask="url(#mask0_185_4)">
<mask id="mask1_185_4" style="mask-type:luminance" maskUnits="userSpaceOnUse" x="0" y="0" width="340" height="15">
<path d="M0 14.306H340V2.28882e-05H0V14.306Z" fill="white"/>
</mask>
<g mask="url(#mask1_185_4)">
<path d="M105.248 65.1405L102.632 65.4389L15.3606 -27.7364L17.9759 -28.0348L105.248 65.1405Z" fill="black"/>
<path d="M107.863 64.8421L105.247 65.1405L17.9756 -28.0348L20.5909 -28.3332L107.863 64.8421Z" fill="#F8D533"/>
<path d="M100.017 65.7372L97.4014 66.0356L10.1296 -27.1396L12.7449 -27.4381L100.017 65.7372Z" fill="black"/>
<path d="M102.632 65.4389L100.017 65.7373L12.7451 -27.438L15.3604 -27.7364L102.632 65.4389Z" fill="#F8D533"/>
<path d="M94.7864 66.334L92.1711 66.6324L4.8994 -26.5428L7.51471 -26.8413L94.7864 66.334Z" fill="black"/>
<path d="M97.4013 66.0356L94.786 66.334L7.51427 -26.8412L10.1296 -27.1397L97.4013 66.0356Z" fill="#F8D533"/>
<path d="M89.5556 66.9311L86.9403 67.2295L-0.331434 -25.9458L2.28387 -26.2442L89.5556 66.9311Z" fill="black"/>
<path d="M92.171 66.6326L89.5557 66.931L2.28392 -26.2442L4.89923 -26.5427L92.171 66.6326Z" fill="#F8D533"/>
<path d="M84.3251 67.5278L81.7098 67.8262L-5.5619 -25.349L-2.9466 -25.6475L84.3251 67.5278Z" fill="black"/>
<path d="M86.9401 67.2294L84.3248 67.5278L-2.94691 -25.6474L-0.331605 -25.9459L86.9401 67.2294Z" fill="#F8D533"/>
<path d="M79.0943 68.1246L76.479 68.423L-10.7927 -24.7522L-8.17743 -25.0507L79.0943 68.1246Z" fill="black"/>
<path d="M81.7097 67.8262L79.0944 68.1246L-8.17738 -25.0506L-5.56207 -25.3491L81.7097 67.8262Z" fill="#F8D533"/>
<path d="M73.864 68.7216L71.2487 69.02L-16.0231 -24.1553L-13.4078 -24.4537L73.864 68.7216Z" fill="black"/>
<path d="M76.4788 68.4232L73.8635 68.7216L-13.4082 -24.4537L-10.7929 -24.7521L76.4788 68.4232Z" fill="#F8D533"/>
<path d="M68.6331 69.3184L66.0178 69.6168L-21.2539 -23.5585L-18.6386 -23.8569L68.6331 69.3184Z" fill="black"/>
<path d="M71.2484 69.02L68.6331 69.3184L-18.6387 -23.8569L-16.0234 -24.1553L71.2484 69.02Z" fill="#F8D533"/>
<path d="M63.4027 69.9151L60.7874 70.2136L-26.4844 -22.9617L-23.8691 -23.2601L63.4027 69.9151Z" fill="black"/>
<path d="M66.0177 69.6167L63.4023 69.9152L-23.8694 -23.2601L-21.2541 -23.5585L66.0177 69.6167Z" fill="#F8D533"/>
<path d="M58.1718 70.5121L55.5565 70.8105L-31.7152 -22.3647L-29.0999 -22.6632L58.1718 70.5121Z" fill="black"/>
<path d="M60.7872 70.2137L58.1719 70.5121L-29.0999 -22.6631L-26.4846 -22.9616L60.7872 70.2137Z" fill="#F8D533"/>
<path d="M52.9415 71.1089L50.3262 71.4073L-36.9456 -21.7679L-34.3303 -22.0664L52.9415 71.1089Z" fill="black"/>
<path d="M55.5566 70.8106L52.9413 71.109L-34.3305 -22.0663L-31.7152 -22.3647L55.5566 70.8106Z" fill="#F8D533"/>
<path d="M47.7106 71.7057L45.0953 72.0042L-42.1764 -21.1711L-39.5611 -21.4695L47.7106 71.7057Z" fill="black"/>
<path d="M50.3261 71.4073L47.7108 71.7057L-39.5609 -21.4695L-36.9456 -21.768L50.3261 71.4073Z" fill="#F8D533"/>
<path d="M42.4803 72.3027L39.865 72.6011L-47.4068 -20.5741L-44.7914 -20.8726L42.4803 72.3027Z" fill="black"/>
<path d="M45.0953 72.0043L42.48 72.3027L-44.7918 -20.8725L-42.1765 -21.171L45.0953 72.0043Z" fill="#F8D533"/>
<path d="M37.2495 72.8995L34.6342 73.1979L-52.6376 -19.9773L-50.0223 -20.2758L37.2495 72.8995Z" fill="black"/>
<path d="M39.8648 72.6011L37.2495 72.8995L-50.0223 -20.2757L-47.407 -20.5742L39.8648 72.6011Z" fill="#F8D533"/>
<path d="M32.0189 73.4963L29.4036 73.7947L-57.8682 -19.3806L-55.2529 -19.679L32.0189 73.4963Z" fill="black"/>
<path d="M34.6342 73.1979L32.0189 73.4963L-55.2529 -19.6789L-52.6376 -19.9774L34.6342 73.1979Z" fill="#F8D533"/>
<path d="M26.7882 74.0932L24.1729 74.3917L-63.0988 -18.7836L-60.4835 -19.082L26.7882 74.0932Z" fill="black"/>
<path d="M29.4035 73.7948L26.7882 74.0933L-60.4835 -19.082L-57.8682 -19.3804L29.4035 73.7948Z" fill="#F8D533"/>
<path d="M21.5576 74.69L18.9423 74.9885L-68.3295 -18.1868L-65.7142 -18.4852L21.5576 74.69Z" fill="black"/>
<path d="M24.1729 74.3917L21.5576 74.6901L-65.7141 -18.4851L-63.0988 -18.7836L24.1729 74.3917Z" fill="#F8D533"/>
<path d="M16.327 75.2868L13.7117 75.5853L-73.5601 -17.59L-70.9448 -17.8884L16.327 75.2868Z" fill="black"/>
<path d="M18.9423 74.9884L16.327 75.2869L-70.9448 -17.8884L-68.3295 -18.1868L18.9423 74.9884Z" fill="#F8D533"/>
<path d="M199.4 54.3969L196.785 54.6953L109.513 -38.48L112.129 -38.7784L199.4 54.3969Z" fill="black"/>
<path d="M202.016 54.0983L199.4 54.3967L112.129 -38.7785L114.744 -39.077L202.016 54.0983Z" fill="#F8D533"/>
<path d="M194.17 54.9937L191.555 55.2921L104.283 -37.8832L106.898 -38.1816L194.17 54.9937Z" fill="black"/>
<path d="M196.785 54.6953L194.17 54.9937L106.898 -38.1816L109.513 -38.48L196.785 54.6953Z" fill="#F8D533"/>
<path d="M188.939 55.5905L186.324 55.8889L99.0521 -37.2864L101.667 -37.5848L188.939 55.5905Z" fill="black"/>
<path d="M191.555 55.2921L188.939 55.5905L101.667 -37.5848L104.283 -37.8832L191.555 55.2921Z" fill="#F8D533"/>
<path d="M183.709 56.1875L181.093 56.4859L93.8216 -36.6894L96.4369 -36.9878L183.709 56.1875Z" fill="black"/>
<path d="M186.324 55.8889L183.709 56.1873L96.437 -36.988L99.0523 -37.2864L186.324 55.8889Z" fill="#F8D533"/>
<path d="M178.478 56.7842L175.863 57.0826L88.5908 -36.0926L91.2061 -36.3911L178.478 56.7842Z" fill="black"/>
<path d="M181.093 56.4859L178.478 56.7843L91.2064 -36.391L93.8217 -36.6894L181.093 56.4859Z" fill="#F8D533"/>
<path d="M173.248 57.381L170.632 57.6794L83.3605 -35.4958L85.9758 -35.7943L173.248 57.381Z" fill="black"/>
<path d="M175.863 57.0827L173.248 57.3811L85.9758 -35.7942L88.5911 -36.0926L175.863 57.0827Z" fill="#F8D533"/>
<path d="M168.017 57.978L165.401 58.2764L78.1296 -34.8988L80.7449 -35.1973L168.017 57.978Z" fill="black"/>
<path d="M170.632 57.6794L168.017 57.9778L80.7451 -35.1974L83.3604 -35.4959L170.632 57.6794Z" fill="#F8D533"/>
<path d="M162.786 58.5748L160.171 58.8732L72.8992 -34.302L75.5145 -34.6005L162.786 58.5748Z" fill="black"/>
<path d="M165.402 58.2764L162.786 58.5748L75.5146 -34.6004L78.1299 -34.8989L165.402 58.2764Z" fill="#F8D533"/>
<path d="M157.555 59.1716L154.94 59.47L67.6684 -33.7052L70.2838 -34.0037L157.555 59.1716Z" fill="black"/>
<path d="M160.171 58.8732L157.556 59.1716L70.2839 -34.0036L72.8992 -34.3021L160.171 58.8732Z" fill="#F8D533"/>
<path d="M152.325 59.7686L149.71 60.067L62.438 -33.1083L65.0533 -33.4067L152.325 59.7686Z" fill="black"/>
<path d="M154.941 59.47L152.325 59.7684L65.0535 -33.4068L67.6688 -33.7053L154.941 59.47Z" fill="#F8D533"/>
<path d="M147.094 60.3654L144.479 60.6638L57.2071 -32.5115L59.8224 -32.8099L147.094 60.3654Z" fill="black"/>
<path d="M149.71 60.067L147.094 60.3654L59.8226 -32.8099L62.4379 -33.1083L149.71 60.067Z" fill="#F8D533"/>
<path d="M141.864 60.9622L139.249 61.2606L51.9769 -31.9147L54.5922 -32.2131L141.864 60.9622Z" fill="black"/>
<path d="M144.479 60.6638L141.864 60.9622L54.5922 -32.2131L57.2075 -32.5115L144.479 60.6638Z" fill="#F8D533"/>
<path d="M136.633 61.5592L134.018 61.8576L46.7458 -31.3177L49.3611 -31.6161L136.633 61.5592Z" fill="black"/>
<path d="M139.248 61.2606L136.633 61.559L49.3614 -31.6163L51.9767 -31.9147L139.248 61.2606Z" fill="#F8D533"/>
<path d="M131.403 62.1559L128.787 62.4543L41.5156 -30.7209L44.1309 -31.0194L131.403 62.1559Z" fill="black"/>
<path d="M134.018 61.8575L131.403 62.1559L44.131 -31.0193L46.7463 -31.3178L134.018 61.8575Z" fill="#F8D533"/>
<path d="M126.172 62.7527L123.557 63.0511L36.2848 -30.1241L38.9001 -30.4226L126.172 62.7527Z" fill="black"/>
<path d="M128.787 62.4543L126.172 62.7527L38.9001 -30.4225L41.5154 -30.721L128.787 62.4543Z" fill="#F8D533"/>
<path d="M120.941 63.3495L118.326 63.6479L31.0544 -29.5273L33.6697 -29.8258L120.941 63.3495Z" fill="black"/>
<path d="M123.557 63.0511L120.941 63.3495L33.6697 -29.8257L36.285 -30.1242L123.557 63.0511Z" fill="#F8D533"/>
<path d="M115.711 63.9465L113.095 64.2449L25.8236 -28.9303L28.4389 -29.2288L115.711 63.9465Z" fill="black"/>
<path d="M118.326 63.6481L115.711 63.9465L28.4388 -29.2287L31.0541 -29.5272L118.326 63.6481Z" fill="#F8D533"/>
<path d="M110.48 64.5433L107.865 64.8417L20.5931 -28.3335L23.2084 -28.632L110.48 64.5433Z" fill="black"/>
<path d="M113.095 64.2449L110.48 64.5433L23.2081 -28.6319L25.8234 -28.9304L113.095 64.2449Z" fill="#F8D533"/>
<path d="M313.667 65.1404L311.051 65.4388L223.78 -27.7364L226.395 -28.0349L313.667 65.1404Z" fill="black"/>
<path d="M316.282 64.842L313.667 65.1404L226.395 -28.0348L229.01 -28.3333L316.282 64.842Z" fill="#F8D533"/>
<path d="M308.436 65.7372L305.821 66.0356L218.549 -27.1396L221.164 -27.4381L308.436 65.7372Z" fill="black"/>
<path d="M311.051 65.4389L308.436 65.7373L221.164 -27.438L223.78 -27.7364L311.051 65.4389Z" fill="#F8D533"/>
<path d="M303.206 66.334L300.59 66.6324L213.319 -26.5428L215.934 -26.8413L303.206 66.334Z" fill="black"/>
<path d="M305.821 66.0356L303.205 66.334L215.934 -26.8412L218.549 -27.1397L305.821 66.0356Z" fill="#F8D533"/>
<path d="M297.975 66.931L295.359 67.2294L208.088 -25.9458L210.703 -26.2443L297.975 66.931Z" fill="black"/>
<path d="M300.59 66.6326L297.975 66.931L210.703 -26.2442L213.318 -26.5427L300.59 66.6326Z" fill="#F8D533"/>
<path d="M292.744 67.5278L290.129 67.8262L202.857 -25.349L205.473 -25.6475L292.744 67.5278Z" fill="black"/>
<path d="M295.359 67.2294L292.744 67.5278L205.472 -25.6474L208.088 -25.9459L295.359 67.2294Z" fill="#F8D533"/>
<path d="M287.514 68.1246L284.898 68.423L197.627 -24.7522L200.242 -25.0507L287.514 68.1246Z" fill="black"/>
<path d="M290.129 67.8262L287.514 68.1246L200.242 -25.0506L202.857 -25.3491L290.129 67.8262Z" fill="#F8D533"/>
<path d="M282.283 68.7215L279.668 69.02L192.396 -24.1553L195.011 -24.4537L282.283 68.7215Z" fill="black"/>
<path d="M284.898 68.4232L282.283 68.7216L195.011 -24.4537L197.626 -24.7521L284.898 68.4232Z" fill="#F8D533"/>
<path d="M277.052 69.3184L274.437 69.6168L187.165 -23.5585L189.781 -23.8569L277.052 69.3184Z" fill="black"/>
<path d="M279.668 69.02L277.052 69.3184L189.781 -23.8569L192.396 -24.1553L279.668 69.02Z" fill="#F8D533"/>
<path d="M271.822 69.9151L269.207 70.2136L181.935 -22.9617L184.55 -23.2601L271.822 69.9151Z" fill="black"/>
<path d="M274.437 69.6167L271.822 69.9152L184.55 -23.2601L187.165 -23.5585L274.437 69.6167Z" fill="#F8D533"/>
<path d="M266.591 70.5121L263.976 70.8105L176.704 -22.3647L179.319 -22.6632L266.591 70.5121Z" fill="black"/>
<path d="M269.207 70.2137L266.591 70.5121L179.32 -22.6631L181.935 -22.9616L269.207 70.2137Z" fill="#F8D533"/>
<path d="M261.361 71.1089L258.745 71.4073L171.474 -21.7679L174.089 -22.0664L261.361 71.1089Z" fill="black"/>
<path d="M263.976 70.8105L261.36 71.1089L174.089 -22.0663L176.704 -22.3648L263.976 70.8105Z" fill="#F8D533"/>
<path d="M256.13 71.7057L253.515 72.0042L166.243 -21.1711L168.858 -21.4695L256.13 71.7057Z" fill="black"/>
<path d="M258.745 71.4073L256.13 71.7057L168.858 -21.4695L171.474 -21.768L258.745 71.4073Z" fill="#F8D533"/>
<path d="M250.899 72.3027L248.284 72.6011L161.012 -20.5741L163.628 -20.8726L250.899 72.3027Z" fill="black"/>
<path d="M253.514 72.0043L250.899 72.3027L163.627 -20.8725L166.243 -21.171L253.514 72.0043Z" fill="#F8D533"/>
<path d="M245.669 72.8995L243.053 73.1979L155.782 -19.9773L158.397 -20.2758L245.669 72.8995Z" fill="black"/>
<path d="M248.284 72.6011L245.669 72.8995L158.397 -20.2757L161.012 -20.5742L248.284 72.6011Z" fill="#F8D533"/>
<path d="M240.438 73.4963L237.823 73.7947L150.551 -19.3806L153.166 -19.679L240.438 73.4963Z" fill="black"/>
<path d="M243.053 73.1979L240.438 73.4963L153.166 -19.6789L155.782 -19.9774L243.053 73.1979Z" fill="#F8D533"/>
<path d="M235.208 74.0932L232.592 74.3917L145.321 -18.7836L147.936 -19.082L235.208 74.0932Z" fill="black"/>
<path d="M237.823 73.7948L235.208 74.0933L147.936 -19.082L150.551 -19.3804L237.823 73.7948Z" fill="#F8D533"/>
<path d="M229.977 74.69L227.361 74.9885L140.09 -18.1868L142.705 -18.4852L229.977 74.69Z" fill="black"/>
<path d="M232.592 74.3916L229.977 74.6901L142.705 -18.4852L145.32 -18.7836L232.592 74.3916Z" fill="#F8D533"/>
<path d="M224.746 75.2868L222.131 75.5853L134.859 -17.59L137.475 -17.8884L224.746 75.2868Z" fill="black"/>
<path d="M227.362 74.9884L224.746 75.2869L137.475 -17.8884L140.09 -18.1868L227.362 74.9884Z" fill="#F8D533"/>
<path d="M407.82 54.3968L405.205 54.6953L317.933 -38.48L320.548 -38.7784L407.82 54.3968Z" fill="black"/>
<path d="M410.436 54.0982L407.821 54.3967L320.549 -38.7786L323.165 -39.077L410.436 54.0982Z" fill="#F8D533"/>
<path d="M402.591 54.9936L399.975 55.2921L312.703 -37.8832L315.319 -38.1816L402.591 54.9936Z" fill="black"/>
<path d="M405.203 54.6952L402.588 54.9937L315.316 -38.1816L317.932 -38.48L405.203 54.6952Z" fill="#F8D533"/>
<path d="M397.358 55.5904L394.742 55.8889L307.471 -37.2864L310.086 -37.5848L397.358 55.5904Z" fill="black"/>
<path d="M399.974 55.292L397.359 55.5905L310.087 -37.5848L312.702 -37.8832L399.974 55.292Z" fill="#F8D533"/>
<path d="M392.128 56.1874L389.513 56.4858L302.241 -36.6894L304.857 -36.9879L392.128 56.1874Z" fill="black"/>
<path d="M394.745 55.8888L392.13 56.1873L304.858 -36.988L307.473 -37.2864L394.745 55.8888Z" fill="#F8D533"/>
<path d="M386.899 56.7842L384.284 57.0826L297.012 -36.0927L299.627 -36.3911L386.899 56.7842Z" fill="black"/>
<path d="M389.512 56.4858L386.897 56.7842L299.625 -36.3911L302.24 -36.6895L389.512 56.4858Z" fill="#F8D533"/>
<path d="M381.666 57.381L379.051 57.6794L291.779 -35.4959L294.394 -35.7943L381.666 57.381Z" fill="black"/>
<path d="M384.282 57.0826L381.667 57.381L294.395 -35.7943L297.011 -36.0927L384.282 57.0826Z" fill="#F8D533"/>
<path d="M376.437 57.9779L373.821 58.2764L286.55 -34.8989L289.165 -35.1973L376.437 57.9779Z" fill="black"/>
<path d="M379.053 57.6794L376.438 57.9778L289.166 -35.1975L291.781 -35.4959L379.053 57.6794Z" fill="#F8D533"/>
<path d="M371.204 58.5747L368.589 58.8732L281.317 -34.3021L283.932 -34.6005L371.204 58.5747Z" fill="black"/>
<path d="M373.82 58.2763L371.205 58.5748L283.933 -34.6005L286.548 -34.8989L373.82 58.2763Z" fill="#F8D533"/>
<path d="M365.975 59.1715L363.359 59.47L276.088 -33.7053L278.703 -34.0037L365.975 59.1715Z" fill="black"/>
<path d="M368.59 58.8731L365.975 59.1716L278.703 -34.0037L281.318 -34.3021L368.59 58.8731Z" fill="#F8D533"/>
<path d="M360.744 59.7685L358.129 60.067L270.857 -33.1083L273.473 -33.4067L360.744 59.7685Z" fill="black"/>
<path d="M363.36 59.4699L360.744 59.7684L273.473 -33.4069L276.088 -33.7053L363.36 59.4699Z" fill="#F8D533"/>
<path d="M355.513 60.3653L352.898 60.6637L265.626 -32.5116L268.242 -32.81L355.513 60.3653Z" fill="black"/>
<path d="M358.129 60.0669L355.514 60.3654L268.242 -32.8099L270.857 -33.1083L358.129 60.0669Z" fill="#F8D533"/>
<path d="M350.283 60.9621L347.668 61.2605L260.396 -31.9148L263.011 -32.2132L350.283 60.9621Z" fill="black"/>
<path d="M352.899 60.6637L350.283 60.9621L263.011 -32.2132L265.627 -32.5116L352.899 60.6637Z" fill="#F8D533"/>
<path d="M345.052 61.5591L342.437 61.8575L255.165 -31.3178L257.781 -31.6162L345.052 61.5591Z" fill="black"/>
<path d="M347.668 61.2605L345.052 61.559L257.781 -31.6163L260.396 -31.9147L347.668 61.2605Z" fill="#F8D533"/>
<path d="M339.822 62.1559L337.207 62.4543L249.935 -30.721L252.55 -31.0194L339.822 62.1559Z" fill="black"/>
<path d="M342.437 61.8575L339.822 62.1559L252.55 -31.0194L255.165 -31.3178L342.437 61.8575Z" fill="#F8D533"/>
<path d="M334.591 62.7527L331.976 63.0511L244.704 -30.1242L247.319 -30.4226L334.591 62.7527Z" fill="black"/>
<path d="M337.206 62.4543L334.591 62.7527L247.319 -30.4226L249.935 -30.721L337.206 62.4543Z" fill="#F8D533"/>
<path d="M329.361 63.3495L326.745 63.6479L239.474 -29.5274L242.089 -29.8258L329.361 63.3495Z" fill="black"/>
<path d="M331.976 63.0511L329.361 63.3495L242.089 -29.8258L244.704 -30.1242L331.976 63.0511Z" fill="#F8D533"/>
<path d="M324.13 63.9464L321.515 64.2449L234.243 -28.9304L236.858 -29.2288L324.13 63.9464Z" fill="black"/>
<path d="M326.745 63.648L324.13 63.9465L236.858 -29.2288L239.473 -29.5272L326.745 63.648Z" fill="#F8D533"/>
<path d="M318.899 64.5432L316.284 64.8416L229.012 -28.3337L231.628 -28.6321L318.899 64.5432Z" fill="black"/>
<path d="M321.514 64.2448L318.899 64.5432L231.627 -28.6321L234.243 -28.9305L321.514 64.2448Z" fill="#F8D533"/>
</g>
</g>
</g>
<defs>
<filter id="filter0_d_185_4" x="0" y="0" width="354" height="38.306" filterUnits="userSpaceOnUse" color-interpolation-filters="sRGB">
<feFlood flood-opacity="0" result="BackgroundImageFix"/>
<feColorMatrix in="SourceAlpha" type="matrix" values="0 0 0 0 0 0 0 0 0 0 0 0 0 0 0 0 0 0 127 0" result="hardAlpha"/>
<feOffset dx="10" dy="20"/>
<feGaussianBlur stdDeviation="2"/>
<feComposite in2="hardAlpha" operator="out"/>
<feColorMatrix type="matrix" values="0 0 0 0 1 0 0 0 0 1 0 0 0 0 1 0 0 0 0.3 0"/>
<feBlend mode="normal" in2="BackgroundImageFix" result="effect1_dropShadow_185_4"/>
<feBlend mode="normal" in="SourceGraphic" in2="effect1_dropShadow_185_4" result="shape"/>
</filter>
</defs>
</svg>
