<svg width="200" height="50" viewBox="0 0 141 50" fill="none" xmlns="http://www.w3.org/2000/svg">
<mask id="mask0_151_12" style="mask-type:luminance" maskUnits="userSpaceOnUse" x="0" y="0" width="141" height="50">

</mask>
<g mask="url(#mask0_151_12)">
<path d="M97.9726 -46.4621L95.7469 -47.0129L21.4763 124.959L23.702 125.51L97.9726 -46.4621Z" fill="black"/>
<path d="M100.198 -45.9114L97.9724 -46.4622L23.7018 125.51L25.9274 126.061L100.198 -45.9114Z" fill="#F8D533"/>
<path d="M93.5211 -47.5636L91.2954 -48.1144L17.0247 123.858L19.2504 124.409L93.5211 -47.5636Z" fill="black"/>
<path d="M95.7469 -47.0129L93.5212 -47.5637L19.2505 124.409L21.4762 124.96L95.7469 -47.0129Z" fill="#F8D533"/>
<path d="M89.0699 -48.6651L86.8442 -49.2159L12.5735 122.756L14.7992 123.307L89.0699 -48.6651Z" fill="black"/>
<path d="M91.2953 -48.1144L89.0696 -48.6652L14.799 123.307L17.0247 123.858L91.2953 -48.1144Z" fill="#F8D533"/>
<path d="M84.6183 -49.7669L82.3926 -50.3177L8.12198 121.655L10.3477 122.205L84.6183 -49.7669Z" fill="black"/>
<path d="M86.8441 -49.2162L84.6184 -49.767L10.3477 122.205L12.5734 122.756L86.8441 -49.2162Z" fill="#F8D533"/>
<path d="M80.1671 -50.8684L77.9414 -51.4193L3.67074 120.553L5.89644 121.104L80.1671 -50.8684Z" fill="black"/>
<path d="M82.3926 -50.3177L80.1669 -50.8685L5.89621 121.104L8.12191 121.655L82.3926 -50.3177Z" fill="#F8D533"/>
<path d="M75.7155 -51.9699L73.4898 -52.5207L-0.780854 119.452L1.44484 120.002L75.7155 -51.9699Z" fill="black"/>
<path d="M77.9413 -51.4192L75.7156 -51.97L1.44491 120.002L3.67061 120.553L77.9413 -51.4192Z" fill="#F8D533"/>
<path d="M71.2643 -53.0718L69.0386 -53.6226L-5.23209 118.35L-3.00639 118.901L71.2643 -53.0718Z" fill="black"/>
<path d="M73.4897 -52.521L71.264 -53.0718L-3.00662 118.901L-0.780926 119.451L73.4897 -52.521Z" fill="#F8D533"/>
<path d="M66.8127 -54.1733L64.587 -54.7241L-9.68363 117.248L-7.45793 117.799L66.8127 -54.1733Z" fill="black"/>
<path d="M69.0385 -53.6225L66.8128 -54.1733L-7.45786 117.799L-5.23216 118.35L69.0385 -53.6225Z" fill="#F8D533"/>
<path d="M62.3616 -55.2748L60.1359 -55.8256L-14.1348 116.147L-11.9091 116.698L62.3616 -55.2748Z" fill="black"/>
<path d="M64.587 -54.724L62.3613 -55.2748L-11.9094 116.698L-9.6837 117.248L64.587 -54.724Z" fill="#F8D533"/>
<path d="M57.91 -56.3766L55.6843 -56.9274L-18.5864 115.045L-16.3607 115.596L57.91 -56.3766Z" fill="black"/>
<path d="M60.1357 -55.8258L57.91 -56.3766L-16.3606 115.596L-14.1349 116.147L60.1357 -55.8258Z" fill="#F8D533"/>
<path d="M53.4587 -57.4781L51.233 -58.0289L-23.0376 113.943L-20.8119 114.494L53.4587 -57.4781Z" fill="black"/>
<path d="M55.6842 -56.9273L53.4585 -57.4781L-20.8122 114.494L-18.5865 115.045L55.6842 -56.9273Z" fill="#F8D533"/>
<path d="M49.0072 -58.5796L46.7815 -59.1304L-27.4892 112.842L-25.2635 113.393L49.0072 -58.5796Z" fill="black"/>
<path d="M51.233 -58.0288L49.0073 -58.5797L-25.2634 113.393L-23.0377 113.944L51.233 -58.0288Z" fill="#F8D533"/>
<path d="M44.556 -59.6814L42.3303 -60.2322L-31.9404 111.74L-29.7147 112.291L44.556 -59.6814Z" fill="black"/>
<path d="M46.7814 -59.1307L44.5557 -59.6815L-29.7149 112.291L-27.4892 112.842L46.7814 -59.1307Z" fill="#F8D533"/>
<path d="M40.1044 -60.7829L37.8787 -61.3337L-36.3919 110.639L-34.1662 111.189L40.1044 -60.7829Z" fill="black"/>
<path d="M42.3302 -60.2322L40.1045 -60.783L-34.1662 111.189L-31.9405 111.74L42.3302 -60.2322Z" fill="#F8D533"/>
<path d="M35.6531 -61.8844L33.4274 -62.4352L-40.8432 109.537L-38.6175 110.088L35.6531 -61.8844Z" fill="black"/>
<path d="M37.8787 -61.3337L35.653 -61.8845L-38.6177 110.088L-36.392 110.639L37.8787 -61.3337Z" fill="#F8D533"/>
<path d="M31.2016 -62.9862L28.9759 -63.537L-45.2948 108.435L-43.0691 108.986L31.2016 -62.9862Z" fill="black"/>
<path d="M33.4274 -62.4355L31.2017 -62.9863L-43.069 108.986L-40.8433 109.537L33.4274 -62.4355Z" fill="#F8D533"/>
<path d="M26.7501 -64.0877L24.5244 -64.6385L-49.7463 107.334L-47.5206 107.885L26.7501 -64.0877Z" fill="black"/>
<path d="M28.9758 -63.537L26.7501 -64.0878L-47.5205 107.885L-45.2948 108.435L28.9758 -63.537Z" fill="#F8D533"/>
<path d="M22.2988 -65.1892L20.0731 -65.7401L-54.1975 106.232L-51.9718 106.783L22.2988 -65.1892Z" fill="black"/>
<path d="M24.5246 -64.6385L22.2989 -65.1893L-51.9718 106.783L-49.7461 107.334L24.5246 -64.6385Z" fill="#F8D533"/>
<path d="M178.099 -26.6329L175.874 -27.1837L101.603 144.789L103.829 145.34L178.099 -26.6329Z" fill="black"/>
<path d="M180.325 -26.0818L178.099 -26.6326L103.829 145.34L106.054 145.891L180.325 -26.0818Z" fill="#F8D533"/>
<path d="M173.648 -27.7344L171.422 -28.2852L97.1516 143.687L99.3773 144.238L173.648 -27.7344Z" fill="black"/>
<path d="M175.874 -27.1836L173.648 -27.7344L99.3774 144.238L101.603 144.789L175.874 -27.1836Z" fill="#F8D533"/>
<path d="M169.196 -28.8359L166.971 -29.3867L92.7001 142.586L94.9258 143.137L169.196 -28.8359Z" fill="black"/>
<path d="M171.422 -28.2851L169.197 -28.8359L94.9259 143.136L97.1516 143.687L171.422 -28.2851Z" fill="#F8D533"/>
<path d="M164.745 -29.9377L162.52 -30.4885L88.2489 141.484L90.4746 142.035L164.745 -29.9377Z" fill="black"/>
<path d="M166.971 -29.3866L164.745 -29.9374L90.4746 142.035L92.7003 142.586L166.971 -29.3866Z" fill="#F8D533"/>
<path d="M160.294 -31.0392L158.068 -31.59L83.7973 140.382L86.023 140.933L160.294 -31.0392Z" fill="black"/>
<path d="M162.519 -30.4884L160.294 -31.0392L86.0231 140.933L88.2488 141.484L162.519 -30.4884Z" fill="#F8D533"/>
<path d="M155.842 -32.1407L153.617 -32.6915L79.346 139.281L81.5717 139.832L155.842 -32.1407Z" fill="black"/>
<path d="M158.068 -31.5899L155.843 -32.1407L81.5719 139.832L83.7976 140.382L158.068 -31.5899Z" fill="#F8D533"/>
<path d="M151.391 -33.2425L149.165 -33.7933L74.8945 138.179L77.1202 138.73L151.391 -33.2425Z" fill="black"/>
<path d="M153.617 -32.6914L151.391 -33.2422L77.1203 138.73L79.346 139.281L153.617 -32.6914Z" fill="#F8D533"/>
<path d="M146.94 -34.344L144.714 -34.8948L70.4433 137.078L72.669 137.628L146.94 -34.344Z" fill="black"/>
<path d="M149.165 -33.7933L146.94 -34.3441L72.669 137.628L74.8947 138.179L149.165 -33.7933Z" fill="#F8D533"/>
<path d="M142.488 -35.4455L140.262 -35.9963L65.9917 135.976L68.2174 136.527L142.488 -35.4455Z" fill="black"/>
<path d="M144.714 -34.8948L142.488 -35.4456L68.2175 136.527L70.4432 137.078L144.714 -34.8948Z" fill="#F8D533"/>
<path d="M138.037 -36.5473L135.811 -37.0981L61.5405 134.874L63.7662 135.425L138.037 -36.5473Z" fill="black"/>
<path d="M140.263 -35.9963L138.037 -36.5471L63.7663 135.425L65.992 135.976L140.263 -35.9963Z" fill="#F8D533"/>
<path d="M133.585 -37.6488L131.36 -38.1996L57.089 133.773L59.3147 134.324L133.585 -37.6488Z" fill="black"/>
<path d="M135.811 -37.0981L133.585 -37.6489L59.3148 134.324L61.5405 134.874L135.811 -37.0981Z" fill="#F8D533"/>
<path d="M129.134 -38.7503L126.908 -39.3011L52.6377 132.671L54.8634 133.222L129.134 -38.7503Z" fill="black"/>
<path d="M131.36 -38.1996L129.134 -38.7504L54.8635 133.222L57.0892 133.773L131.36 -38.1996Z" fill="#F8D533"/>
<path d="M124.682 -39.8522L122.457 -40.403L48.1861 131.569L50.4118 132.12L124.682 -39.8522Z" fill="black"/>
<path d="M126.908 -39.3011L124.683 -39.8519L50.412 132.12L52.6377 132.671L126.908 -39.3011Z" fill="#F8D533"/>
<path d="M120.231 -40.9537L118.006 -41.5045L43.735 130.468L45.9607 131.019L120.231 -40.9537Z" fill="black"/>
<path d="M122.457 -40.4029L120.231 -40.9537L45.9607 131.019L48.1864 131.569L122.457 -40.4029Z" fill="#F8D533"/>
<path d="M115.78 -42.0552L113.554 -42.606L39.2834 129.366L41.5091 129.917L115.78 -42.0552Z" fill="black"/>
<path d="M118.006 -41.5044L115.78 -42.0552L41.5092 129.917L43.7349 130.468L118.006 -41.5044Z" fill="#F8D533"/>
<path d="M111.328 -43.1567L109.103 -43.7075L34.8321 128.265L37.0578 128.816L111.328 -43.1567Z" fill="black"/>
<path d="M113.554 -42.6059L111.329 -43.1567L37.058 128.816L39.2836 129.366L113.554 -42.6059Z" fill="#F8D533"/>
<path d="M106.877 -44.2585L104.651 -44.8093L30.3806 127.163L32.6063 127.714L106.877 -44.2585Z" fill="black"/>
<path d="M109.103 -43.7077L106.877 -44.2585L32.6064 127.714L34.8321 128.265L109.103 -43.7077Z" fill="#F8D533"/>
<path d="M102.426 -45.36L100.2 -45.9108L25.9294 126.062L28.155 126.612L102.426 -45.36Z" fill="black"/>
<path d="M104.651 -44.8092L102.425 -45.36L28.1548 126.612L30.3805 127.163L104.651 -44.8092Z" fill="#F8D533"/>
</g>

</svg>
